<svg xmlns="http://www.w3.org/2000/svg" width="106.707" height="70.999" viewBox="0 0 106.707 70.999">
  <g id="adidas" transform="translate(104.165 -185.138)">
    <path id="Path_123" data-name="Path 123" d="M105.206,81.326h.289a.529.529,0,0,1,.386.112.218.218,0,0,1,.064.048,2.82,2.82,0,0,1,.45.643l.273.481h.578l-.353-.594a3.986,3.986,0,0,0-.45-.594.79.79,0,0,0-.257-.16.939.939,0,0,0,.626-.273.788.788,0,0,0,.242-.578.708.708,0,0,0-.145-.433.694.694,0,0,0-.386-.289,1.711,1.711,0,0,0-.578-.08c-.048,0-.112-.016-.176-.016h-1.044v3.018h.481V81.326h0Zm0-1.317h.739a2.543,2.543,0,0,1,.305.048.355.355,0,0,1,.208.16.389.389,0,0,1,.064.241.4.4,0,0,1-.145.321.7.7,0,0,1-.433.129h-.739v-.9h0ZM33.1,80.346h4.335L33.1,73.121l-3.661-6.085L13.881,76.381l2.376,3.966H33.1Zm40.332,0H94.61L81.427,58.382,66.849,34.138l-6.005,3.613-9.537,5.732,9.537,15.879Zm-7.4,7.241a9.428,9.428,0,0,0-5.139-1.525h-.048a9.537,9.537,0,0,0,0,19.075h.048a9.424,9.424,0,0,0,5.139-1.525v1h4.383V80.347H66.031Zm0,9.008a5.266,5.266,0,0,1-5.139,4.254h-.048a5.242,5.242,0,0,1,0-10.484h.048A5.253,5.253,0,0,1,66.031,94.6Zm20.583-9.008a9.383,9.383,0,0,0-5.138-1.525h-.049a9.537,9.537,0,0,0,0,19.075h.049a9.378,9.378,0,0,0,5.138-1.525v1H91V86.544H86.614v1.044Zm0,9.008a5.265,5.265,0,0,1-5.138,4.254h-.049a5.242,5.242,0,0,1,0-10.484h.049A5.253,5.253,0,0,1,86.614,94.6Zm19.973-2.184c-.16-.081-.386-.161-.643-.257a46.364,46.364,0,0,0-4.785-1.236c-1.943-.434-2.922-1-2.922-1.7a1.5,1.5,0,0,1,.513-1.188,3.772,3.772,0,0,1,2.409-.578,3.506,3.506,0,0,1,2.521.755,3.131,3.131,0,0,1,.674,1.622h4.656a5.172,5.172,0,0,0-2.762-4.912,1.819,1.819,0,0,0-.305-.16,12.038,12.038,0,0,0-5.057-.9c-2.553,0-4.48.675-5.763,2.039a5.6,5.6,0,0,0-1.525,4,4.475,4.475,0,0,0,2.922,4.287,31.365,31.365,0,0,0,5.4,1.461c1.911.418,2.873,1.012,2.873,1.766a1.5,1.5,0,0,1-.609,1.188,3.657,3.657,0,0,1-2.409.675,5.015,5.015,0,0,1-3.034-.706,2.306,2.306,0,0,1-.9-1.943H92.956a5.36,5.36,0,0,0,2.81,4.96,11.811,11.811,0,0,0,5.878,1.285,10.892,10.892,0,0,0,4.3-.8c.257-.112.483-.225.723-.354a5.372,5.372,0,0,0,2.874-5.057A4.5,4.5,0,0,0,106.587,94.411ZM17.51,87.588a9.476,9.476,0,0,0-5.154-1.525h-.048a9.537,9.537,0,0,0,0,19.075h.048a9.472,9.472,0,0,0,5.154-1.525v1h4.383V86.544H17.51v1.044Zm0,9.008a5.27,5.27,0,0,1-5.154,4.254h-.048a5.242,5.242,0,0,1,0-10.484h.048A5.256,5.256,0,0,1,17.51,94.6ZM44.869,84.634h4.769V80.443H44.869Zm0,19.973h4.769V86.062H44.869ZM38.3,87.588a9.477,9.477,0,0,0-5.154-1.525H33.1a9.537,9.537,0,0,0,0,19.075h.048a9.473,9.473,0,0,0,5.154-1.525v1h4.383V80.347H38.3v7.241Zm0,9.008a5.27,5.27,0,0,1-5.154,4.254H33.1a5.242,5.242,0,0,1,0-10.484h.048A5.257,5.257,0,0,1,38.3,94.6V96.6ZM66.014,80.346l-5.17-8.638-12.7-21.13L33.1,59.635l-.514.3.514.851L44.852,80.346H66.014Z" transform="translate(-107 151)" fill="#fff" fill-rule="evenodd"/>
  </g>
</svg>
