<svg xmlns="http://www.w3.org/2000/svg" width="94.115" height="90.068" viewBox="0 0 94.115 90.068">
  <g id="footsite" transform="translate(-158 -370.459)">
    <path id="Union_1" data-name="Union 1" d="M72.941,87.654C65.468,82.2,58.073,76.834,50.6,71.385c-1.012-.779-2.1-1.557-3.113-2.336a.438.438,0,0,0-.7,0L20.4,88.277a26.369,26.369,0,0,1-2.413,1.635C21.641,78.469,25.3,67.1,29.037,55.66Q14.44,45.034,0,34.485c.078,0,.078,0,.078-.077H35.342c.467,0,.622-.078.778-.545C39.7,22.731,43.282,11.677,46.863.623A2.642,2.642,0,0,0,47.1,0c.311,1.012.623,1.946.934,2.88C51.3,13.156,54.648,23.509,58,33.785c.155.467.311.545.778.545H93.493v.155h.622a2.143,2.143,0,0,0-.389.311L65.468,55.348a.627.627,0,0,0-.233.857c3.659,11.132,7.24,22.186,10.821,33.318a2.379,2.379,0,0,1,.155.545C75.043,89.211,74.031,88.433,72.941,87.654Z" transform="translate(158 370.459)"/>
    <path id="Path_136" data-name="Path 136" d="M10496.457,2590.134V2585.4l-9.723-.708-5.99,1.59-3.683,3.848s.107,7.036,0,7.415,2.308,5.99,2.308,5.99l1.375,2.908-1.375,2.967-5.769,3.024h-4.392l-9.606,5.488-7.2,7.144,5,5.545,6.1-2.035,4.828-3.51,1.6,19.008.545,11.041h32.19l1.92-30.98,5.225,4.441,7.249,2.472,3.017-6.913-4.664-5.059-7.474-4.886-4.613-1.755-8.181-2.093-.883-1.318-.766-4.449,3.46-7.8.873-.709-1.367-4.672Z" transform="translate(-10281.564 -2202.239)"/>
    <g id="Group_464" data-name="Group 464" transform="translate(164.347 381.862)">
      <path id="Path_131" data-name="Path 131" d="M440.39,1036.389c1.455,2.292,2.776,2.416,4.764.528l1.918,2.628-1.9,1.13.913,1.551-2.165,1.257c.555.456,1.568.978,1.507,1.287-.675,3.4-.835,3.56-2.93,3.3s-4.174-.677-6.271-.92a6.289,6.289,0,0,0-1.855.355,4.964,4.964,0,0,0,.709,1.6c1.644,1.636,1.611,3.468.844,5.882a34.431,34.431,0,0,1-4.342-3.488,3.711,3.711,0,0,1-.634-2.891c.585-2.682.894-5.228-.789-7.659a2.842,2.842,0,0,1-.538-1.741c.077-.722.337-1.766.84-2.009a2.526,2.526,0,0,1,2.134.511c1.983,1.6,1.944,1.663,2.894-.7a6.88,6.88,0,0,1,5.967-4.443c2.01-.234,2.378-1.5,2.435-3.089.064-1.763-1.111-2.214-2.564-2.2-3.033.034-6.13-.246-9.085.267-6.021,1.046-8.682,6.3-6.347,11.981.778,1.893,1.839,3.672,2.594,5.573,1.592,4,.287,6.574-3.873,7.89-.529.167-1.062.323-1.737.528.7,14.351,1.391,28.67,2.091,43.1h-3.134c-.735-14.109-1.468-28.174-2.208-42.389l-3.274.687c.588,9.4,1.164,18.63,1.741,27.858l-.665.057c-.548-5.048-1.1-10.1-1.673-15.394l-4.68,2.891-1.315-1.863c1.106-.75,2.153-1.476,3.217-2.177,2.661-1.753,2.664-1.748,1.984-5.335l-7.031,4.431-1.517-2.091c2.421-1.6,4.743-3.213,7.142-4.7,1.074-.666,1.512-1.353.765-2.705-4.566,2.557-8.9,5.3-12.121,9.709l3.824,6.263a33.7,33.7,0,0,1-3.675,1.927c-2.426.924-2.551,1.328-.734,3.041a20.263,20.263,0,0,1,1.8,2.122c1.088,1.356,2.112,2.765,3.246,4.081,2.23,2.587,4.8,4.074,8.358,2.579a17,17,0,0,1,3.773-.5c-.725,2.2-1.3,3.894-1.84,5.6-.358,1.12-1.154,1.272-2.194,1.167-4.875-.491-9.016-2.677-12.842-5.556a27.812,27.812,0,0,1-7.346-8.348c-1.1-1.88-1.2-3.588.236-5.313,1.151-1.386,2.243-2.821,3.39-4.21q3.019-3.657,6.084-7.276a9.916,9.916,0,0,1,1.526-1.36c5.137-3.963,10.667-7.13,17.256-7.815,2.249-.234,3.193-1.965,4.553-3.232.254-.236.126-1.091-.067-1.56-.8-1.951-1.671-3.876-2.563-5.788-1.238-2.655-2.009-5.382-1.149-8.3a9.542,9.542,0,0,1,8.775-7.233,62.937,62.937,0,0,1,9.294-.062c2.714.128,3.878,2.046,3.324,4.753-.209,1.023.023,2.129-.121,3.174a1.974,1.974,0,0,1-.855,1.382A38.476,38.476,0,0,1,440.39,1036.389Z" transform="translate(-393.743 -1025.68)" fill="#fff"/>
      <path id="Path_132" data-name="Path 132" d="M535.624,1096.806c-1.042,1.714-.679,2.413.442,3.1,2.417,1.487,4.743,3.124,7.211,4.769l-1.447,2.12-6.987-4.4c-1.054,3.178-.982,3.387,1.568,5.065,1.134.746,2.26,1.5,3.49,2.323l-1.205,1.994-4.774-3.015c-.566,5.329-1.1,10.376-1.637,15.424l-.65-.061,1.733-27.843-3.319-.678c-.67,14.158-1.333,28.171-2,42.334h-3.3q1.029-21.5,2.059-42.972c-1.633-.835-4.027-.687-4.024-3.272,2.938,2.438,6.746,1.976,10.01,3.171a30.916,30.916,0,0,1,13.189,8.624c2.679,3.1,5.453,6.122,8.01,9.32,2.764,3.456,2.751,4.237.28,7.924a28.368,28.368,0,0,1-17.252,12.171c-3.418.843-5.442-.82-5.583-4.338-.022-.548,0-1.1,0-2.059a27.011,27.011,0,0,1,4.063.693,5.492,5.492,0,0,0,6.261-1.566c1.469-1.6,2.852-3.27,4.268-4.913.806-.936,1.545-1.938,2.414-2.811,1.307-1.313,1.179-1.856-.6-2.593-1.382-.572-2.706-1.282-4.193-2l4.183-6.873Z" transform="translate(-474.603 -1067.046)" fill="#fff"/>
      <path id="Path_133" data-name="Path 133" d="M512.182,1153.811h-2.767v-36.727l3.781-.17C512.868,1128.845,512.528,1141.217,512.182,1153.811Z" transform="translate(-466.229 -1082.852)" fill="#fff"/>
      <path id="Path_134" data-name="Path 134" d="M512.182,1153.811h-2.767v-36.727l3.781-.17C512.868,1128.845,512.528,1141.217,512.182,1153.811Z" transform="translate(-473.696 -1082.852)" fill="#fff"/>
    </g>
  </g>
</svg>
