<svg xmlns="http://www.w3.org/2000/svg" xmlns:xlink="http://www.w3.org/1999/xlink" viewBox="0 0 687.76 794.19"><defs><style>.cls-1{isolation:isolate;}.cls-2{fill:url(#linear-gradient);}.cls-3{fill:url(#linear-gradient-2);}.cls-4{fill:url(#linear-gradient-3);}.cls-5{fill:url(#linear-gradient-4);}.cls-6{fill:url(#linear-gradient-5);}.cls-7{fill:url(#linear-gradient-6);}.cls-8{fill:url(#linear-gradient-7);}.cls-9{fill:url(#linear-gradient-8);}.cls-10{fill:url(#linear-gradient-9);}.cls-11{fill:url(#linear-gradient-10);}.cls-12{fill:url(#linear-gradient-11);}.cls-13{fill:url(#linear-gradient-12);}.cls-14{fill:url(#linear-gradient-13);}.cls-15,.cls-18,.cls-19{mix-blend-mode:soft-light;}.cls-16{fill:url(#linear-gradient-14);}.cls-17{fill:url(#linear-gradient-15);}.cls-18{fill:url(#linear-gradient-16);}.cls-19{fill:url(#linear-gradient-17);}</style><linearGradient id="linear-gradient" x1="473.91" y1="611.48" x2="596.71" y2="540.58" gradientUnits="userSpaceOnUse"><stop offset="0.35" stop-color="#203755"/><stop offset="0.57" stop-color="#28344e"/><stop offset="0.91" stop-color="#3d2d3a"/><stop offset="1" stop-color="#442a34"/></linearGradient><linearGradient id="linear-gradient-2" x1="-922.1" y1="400.01" x2="-922.1" y2="218.7" gradientTransform="translate(1469.51)" gradientUnits="userSpaceOnUse"><stop offset="0" stop-color="#53272d"/><stop offset="0.04" stop-color="#4a2931"/><stop offset="0.25" stop-color="#223045"/><stop offset="0.42" stop-color="#093551"/><stop offset="0.52" stop-color="#003755"/><stop offset="0.57" stop-color="#003f5c"/><stop offset="0.65" stop-color="#00546e"/><stop offset="0.74" stop-color="#00778c"/><stop offset="0.84" stop-color="#00a8b5"/><stop offset="0.96" stop-color="#00e5e9"/><stop offset="1" stop-color="aqua"/></linearGradient><linearGradient id="linear-gradient-3" x1="-43.28" y1="840.02" x2="-43.28" y2="600.57" gradientTransform="translate(418.09 -241.38)" gradientUnits="userSpaceOnUse"><stop offset="0" stop-color="#53272d"/><stop offset="0.04" stop-color="#4a2931"/><stop offset="0.25" stop-color="#223245"/><stop offset="0.42" stop-color="#093751"/><stop offset="0.52" stop-color="#003955"/><stop offset="0.57" stop-color="#00415c"/><stop offset="0.65" stop-color="#00566e"/><stop offset="0.74" stop-color="#00798c"/><stop offset="0.84" stop-color="#00aab6"/><stop offset="0.96" stop-color="#00e7eb"/><stop offset="1" stop-color="aqua"/></linearGradient><linearGradient id="linear-gradient-4" x1="261.47" y1="290.04" x2="261.47" y2="50.58" gradientTransform="matrix(-0.5, 0.87, 0.87, 0.5, 226.21, -130.6)" xlink:href="#linear-gradient-3"/><linearGradient id="linear-gradient-5" x1="261.28" y1="445.91" x2="261.28" y2="206.45" gradientTransform="matrix(-0.5, 0.87, 0.87, 0.5, 226.21, -130.6)" xlink:href="#linear-gradient-3"/><linearGradient id="linear-gradient-6" x1="-497.93" y1="714.67" x2="-497.93" y2="276.66" gradientTransform="matrix(-1, 0, 0, 1, -256.93, 0)" xlink:href="#linear-gradient-2"/><linearGradient id="linear-gradient-7" x1="-363.48" y1="636.53" x2="-363.48" y2="198.52" gradientTransform="matrix(-1, 0, 0, 1, -256.93, 0)" xlink:href="#linear-gradient-3"/><linearGradient id="linear-gradient-8" x1="473.91" y1="354.46" x2="596.71" y2="283.55" gradientUnits="userSpaceOnUse"><stop offset="0.35" stop-color="#003755"/><stop offset="0.49" stop-color="#083651"/><stop offset="0.71" stop-color="#1d3147"/><stop offset="0.97" stop-color="#402b36"/><stop offset="1" stop-color="#442a34"/></linearGradient><linearGradient id="linear-gradient-9" x1="261.7" y1="605.2" x2="261.7" y2="365.75" gradientTransform="matrix(-0.5, 0.87, 0.87, 0.5, 226.21, -130.6)" xlink:href="#linear-gradient-3"/><linearGradient id="linear-gradient-10" x1="495.61" y1="380.63" x2="408.94" y2="434.43" gradientUnits="userSpaceOnUse"><stop offset="0" stop-color="#006994"/><stop offset="0.35" stop-color="#005a82"/><stop offset="1" stop-color="#003755"/></linearGradient><linearGradient id="linear-gradient-11" x1="43.07" y1="666.97" x2="301.04" y2="220.16" gradientTransform="matrix(1, 0.58, 0, 1, 0, -46.58)" gradientUnits="userSpaceOnUse"><stop offset="0" stop-color="#c1272d"/><stop offset="0.18" stop-color="#a25163"/><stop offset="0.33" stop-color="#8b718c"/><stop offset="0.45" stop-color="#7c84a5"/><stop offset="0.52" stop-color="#778bae"/><stop offset="0.59" stop-color="#6f93b3"/><stop offset="0.7" stop-color="#5aa7c2"/><stop offset="0.83" stop-color="#37c9da"/><stop offset="0.98" stop-color="#07f8fa"/><stop offset="1" stop-color="aqua"/></linearGradient><linearGradient id="linear-gradient-12" x1="386.87" y1="666.88" x2="644.78" y2="220.17" gradientTransform="matrix(1, -0.58, 0, 1, 0, 350.6)" xlink:href="#linear-gradient-11"/><linearGradient id="linear-gradient-13" x1="257.91" y1="49.62" x2="429.85" y2="347.43" gradientTransform="matrix(1, 0, 0, 1, 0, 0)" xlink:href="#linear-gradient-11"/><linearGradient id="linear-gradient-14" x1="421.11" y1="488.64" x2="395.08" y2="360.3" gradientUnits="userSpaceOnUse"><stop offset="0.13" stop-color="#fff" stop-opacity="0.2"/><stop offset="1" stop-color="#55acc5" stop-opacity="0"/></linearGradient><linearGradient id="linear-gradient-15" x1="623.95" y1="603.3" x2="554.4" y2="260.32" xlink:href="#linear-gradient-14"/><linearGradient id="linear-gradient-16" x1="223.72" y1="512.32" x2="-81.08" y2="335.06" gradientUnits="userSpaceOnUse"><stop offset="0.31" stop-color="#fff" stop-opacity="0.2"/><stop offset="0.73" stop-color="#53ffff" stop-opacity="0.06"/><stop offset="1" stop-color="aqua" stop-opacity="0"/></linearGradient><linearGradient id="linear-gradient-17" x1="419.07" y1="242.55" x2="85.45" y2="48.52" xlink:href="#linear-gradient-16"/></defs><title>meklogo</title><g class="cls-1"><g id="Layer_1" data-name="Layer 1"><g id="meklogo_v2" data-name="meklogo v2"><polygon class="cls-2" points="582.65 656.84 459.84 587.13 459.84 511.46 582.65 516.22 582.65 656.84"/><polygon class="cls-3" points="511.89 218.7 511.89 383.03 582.93 400.01 582.93 235.64 511.89 218.7"/><polyline class="cls-4" points="167.37 557.71 511.25 359.18 582.24 400.16 238.41 598.64"/><polyline class="cls-5" points="414.92 40.74 71.06 239.29 71.06 321.26 414.85 122.73"/><polyline class="cls-6" points="550.01 118.52 206.14 317.06 206.14 399.04 549.93 200.5"/><polygon class="cls-7" points="276.52 276.66 276.52 673.66 205.48 714.67 205.48 317.59 276.52 276.66"/><polygon class="cls-8" points="142.07 198.52 142.07 595.52 71.04 636.53 71.04 239.46 142.07 198.52"/><polygon class="cls-9" points="582.65 399.81 459.84 330.1 459.84 254.44 582.65 259.19 582.65 399.81"/><polyline class="cls-10" points="687.75 198.52 343.89 397.07 343.89 479.04 687.68 280.51"/><polygon class="cls-11" points="582.65 399.81 448.99 476.98 448.99 336.36 459.84 330.1 582.65 399.81"/><polygon class="cls-12" points="344.11 397.11 344.11 794.19 273.07 753.18 273.07 532.71 205.92 493.94 205.92 714.41 138.19 675.31 138.19 454.83 71.04 416.06 71.04 636.53 0 595.52 0 198.44 344.11 397.11"/><polygon class="cls-13" points="687.76 198.51 582.65 259.19 582.65 399.81 448.99 476.98 448.99 336.36 343.88 397.05 343.88 794.13 448.99 733.44 448.99 593.15 582.65 515.99 582.65 656.27 687.76 595.59 687.76 436.25 646.1 421.3 687.7 358.34 687.76 198.51"/><polygon class="cls-14" points="616.77 157.54 425.84 267.77 358.73 229.03 549.66 118.8 481.98 79.73 291.05 189.95 223.94 151.21 414.87 40.98 343.88 0 0 198.52 343.88 397.05 687.76 198.52 616.77 157.54"/><g class="cls-15"><path class="cls-16" d="M343.88,397.63C373.75,424.26,409.18,450,449,473.4v-137L343.88,397.05Z"/><path class="cls-17" d="M687.76,198.51,582.65,259.19V399.81L452.07,475.2c19.19,11.16,39.37,21.79,60.42,31.72q24.64,11.61,49.15,21.2l21-12.13v20a677,677,0,0,0,105.11,28.73V436.25L646.1,421.3l41.6-63Z"/></g><path class="cls-18" d="M344.11,397.11,0,198.44v369a695.6,695.6,0,0,0,71-19.78V416.06l67.15,38.77v66.91a922.62,922.62,0,0,0,125.06-66.8,938.59,938.59,0,0,0,80.86-57.53Z"/><path class="cls-19" d="M358.73,229,549.66,118.8,482,79.73,291.05,190l-67.11-38.74L414.87,41l-71-41L0,198.52l121.83,70.34c41.68,16.52,82.45,27.89,109.79,32.76,124.64,22.18,194.22-33.85,194.22-33.85Z"/></g></g></g></svg>