<svg xmlns="http://www.w3.org/2000/svg" width="120.908" height="137.498" viewBox="0 0 120.908 137.498">
  <g id="shopify" transform="translate(-0.038 -0.779)">
    <path id="Path_118" data-name="Path 118" d="M105.936,27.55a1.329,1.329,0,0,0-1.2-1.116c-.5-.042-11.068-.825-11.068-.825s-7.34-7.287-8.145-8.093-2.38-.561-2.991-.381c-.09.027-1.6.494-4.107,1.268C75.972,11.349,71.645,4.865,64.033,4.865c-.21,0-.426.009-.643.021C61.225,2.023,58.543.779,56.227.779c-17.733,0-26.2,22.168-28.861,33.433-6.891,2.135-11.786,3.653-12.411,3.85-3.846,1.206-3.968,1.328-4.473,4.952C10.1,45.757.038,123.584.038,123.584l78.418,14.693,42.49-9.192S106.031,28.241,105.937,27.55ZM74.09,19.744,67.454,21.8c0-.468,0-.928,0-1.431A32.547,32.547,0,0,0,65.874,9.653C69.8,10.145,72.408,14.608,74.09,19.744ZM61.008,10.523c1.091,2.732,1.8,6.654,1.8,11.946,0,.271,0,.518,0,.769L49.1,27.481c2.639-10.184,7.585-15.1,11.909-16.958ZM55.74,5.535a4,4,0,0,1,2.274.768c-5.683,2.674-11.775,9.41-14.347,22.86L32.834,32.518C35.847,22.259,43,5.535,55.739,5.535Z" transform="translate(0 0)" fill="#95bf46"/>
    <path id="Path_119" data-name="Path 119" d="M192,44.48c-.5-.042-11.068-.825-11.068-.825s-7.34-7.287-8.145-8.093a2.012,2.012,0,0,0-1.133-.52l-5.929,121.28,42.486-9.191S193.294,46.287,193.2,45.6A1.329,1.329,0,0,0,192,44.48" transform="translate(-87.264 -18.046)" fill="#5e8e3e"/>
    <path id="Path_120" data-name="Path 120" d="M84.67,102.3,79.43,117.885a24.1,24.1,0,0,0-10.217-2.45c-8.249,0-8.664,5.177-8.664,6.481,0,7.118,18.554,9.845,18.554,26.517C79.1,161.55,70.784,170,59.566,170c-13.461,0-20.345-8.378-20.345-8.378l3.6-11.909s7.076,6.075,13.047,6.075a5.263,5.263,0,0,0,5.489-5.316c0-9.285-15.222-9.7-15.222-24.955,0-12.841,9.216-25.267,27.821-25.267,7.168,0,10.71,2.053,10.71,2.053" transform="translate(-20.637 -52.388)" fill="#fff"/>
  </g>
</svg>
