<svg xmlns="http://www.w3.org/2000/svg" xmlns:xlink="http://www.w3.org/1999/xlink" width="112.766" height="109.006" viewBox="0 0 112.766 109.006">
  <defs>
    <linearGradient id="linear-gradient" x1="0.5" x2="0.5" y2="1" gradientUnits="objectBoundingBox">
      <stop offset="0" stop-color="#7516e3"/>
      <stop offset="1" stop-color="#b558fc"/>
    </linearGradient>
    <filter id="Rectangle_142" x="0" y="0" width="112.766" height="109.006" filterUnits="userSpaceOnUse">
      <feOffset dy="3" input="SourceAlpha"/>
      <feGaussianBlur stdDeviation="3" result="blur"/>
      <feFlood flood-opacity="0.161"/>
      <feComposite operator="in" in2="blur"/>
      <feComposite in="SourceGraphic"/>
    </filter>
    <clipPath id="clip-path">
      <rect id="Rectangle_109" data-name="Rectangle 109" width="49.639" height="51.144" fill="none"/>
    </clipPath>
  </defs>
  <g id="community" transform="translate(9 6)">
    <g transform="matrix(1, 0, 0, 1, -9, -6)" filter="url(#Rectangle_142)">
      <rect id="Rectangle_142-2" data-name="Rectangle 142" width="94.766" height="91.006" rx="18" transform="translate(103.77 97.01) rotate(180)" fill="url(#linear-gradient)"/>
    </g>
    <g id="Group_209" data-name="Group 209" transform="translate(23.268 20.98)">
      <g id="Group_208" data-name="Group 208" transform="translate(0 0)" clip-path="url(#clip-path)">
        <path id="Path_37" data-name="Path 37" d="M5813.1-8285.5a2.07,2.07,0,0,0-1.475.618l-20.958,18.284a1.039,1.039,0,0,0-.422.838,1.038,1.038,0,0,0,1.039,1.036h5.194v16.622a2.078,2.078,0,0,0,2.078,2.077h8.311a2.078,2.078,0,0,0,2.078-2.077v-12.467h8.311v12.467a2.078,2.078,0,0,0,2.079,2.077h8.31a2.078,2.078,0,0,0,2.078-2.077v-16.622h5.194a1.038,1.038,0,0,0,1.039-1.036,1.04,1.04,0,0,0-.421-.838l-20.944-18.273-.012-.011A2.076,2.076,0,0,0,5813.1-8285.5Z" transform="translate(-5788.861 8290.11)" fill="#fff"/>
      </g>
    </g>
  </g>
</svg>
