<svg xmlns="http://www.w3.org/2000/svg" xmlns:xlink="http://www.w3.org/1999/xlink" width="112.766" height="109.006" viewBox="0 0 112.766 109.006">
  <defs>
    <linearGradient id="linear-gradient" x1="0.5" x2="0.5" y2="1" gradientUnits="objectBoundingBox">
      <stop offset="0" stop-color="#ba26d7"/>
      <stop offset="1" stop-color="#df83f1"/>
    </linearGradient>
    <filter id="Rectangle_100" x="0" y="0" width="112.766" height="109.006" filterUnits="userSpaceOnUse">
      <feOffset dy="3" input="SourceAlpha"/>
      <feGaussianBlur stdDeviation="3" result="blur"/>
      <feFlood flood-opacity="0.161"/>
      <feComposite operator="in" in2="blur"/>
      <feComposite in="SourceGraphic"/>
    </filter>
    <clipPath id="clip-path">
      <rect id="Rectangle_130" data-name="Rectangle 130" width="47.383" height="48.887" fill="none"/>
    </clipPath>
  </defs>
  <g id="groupbuys" transform="translate(9 6)">
    <g transform="matrix(1, 0, 0, 1, -9, -6)" filter="url(#Rectangle_100)">
      <rect id="Rectangle_100-2" data-name="Rectangle 100" width="94.766" height="91.006" rx="18" transform="translate(103.77 97.01) rotate(180)" fill="url(#linear-gradient)"/>
    </g>
    <g id="Group_255" data-name="Group 255" transform="translate(23.692 21.416)">
      <g id="Group_254" data-name="Group 254" transform="translate(0 0)" clip-path="url(#clip-path)">
        <path id="Path_44" data-name="Path 44" d="M3766.725-6318.246a3.281,3.281,0,0,0-2.152.949c-1.2,1.2-1.956,3.357-.888,4.621s2.29.478,3.231.257c-.262.967-1.022,1.906-.063,3.164s2.288.479,3.23.257c-.264.963-.991,1.929-.065,3.1s2.416.58,3.421.256c-.386,1.034-1.2,2.161-.127,3.418s3.541.689,4.75-.507a3.085,3.085,0,0,0,.254-4.24,2.714,2.714,0,0,0-2.85-.636,2.816,2.816,0,0,0-.443-2.978,2.652,2.652,0,0,0-2.6-.7,2.842,2.842,0,0,0-.569-2.725,2.644,2.644,0,0,0-2.6-.693,2.837,2.837,0,0,0-.567-2.724A2.524,2.524,0,0,0,3766.725-6318.246Zm10.577-19.568c-2.977,0-9.182,4.241-9.182,4.241a4.771,4.771,0,0,1-4.307.126l-4.813-1.71v17.418s1.354.424,2.6.949a5.793,5.793,0,0,1,1.395-2.219,5.2,5.2,0,0,1,7.346-.06,5.09,5.09,0,0,1,1.2,2.151,4.664,4.664,0,0,1,1.965,1.265,4.962,4.962,0,0,1,1.14,2.156,4.764,4.764,0,0,1,2.027,1.266,4.975,4.975,0,0,1,1.2,2.344,4.641,4.641,0,0,1,2.088,1.264,5.268,5.268,0,0,1,1.268,4.437s.7.814,1.139,1.268a2.113,2.113,0,0,0,1.52.646,2.115,2.115,0,0,0,1.521-.646,2.325,2.325,0,0,0,0-3.167c-.031-.032-3.063-3.2-2.788-3.486s4.046,3.794,4.117,3.865a2.1,2.1,0,0,0,1.52.647,2.1,2.1,0,0,0,1.52-.647,2.244,2.244,0,0,0,0-3.1c-.039-.042-3.514-3.824-3.291-4.055.243-.262,4.486,4.241,4.494,4.241a2.051,2.051,0,0,0,1.471.581,2.038,2.038,0,0,0,1.444-.643,2.284,2.284,0,0,0,.125-2.977c-.016-.046-3.513-3.951-3.293-4.18s3.792,3.478,3.8,3.486a2.111,2.111,0,0,0,1.519.646,2.113,2.113,0,0,0,1.521-.646,2.326,2.326,0,0,0,0-3.168c-.016-.017-4.677-4.815-9.373-9.688a3.017,3.017,0,0,0-3.293-.636c-1.306.593-2.977,1.407-4.244,2.026a8.409,8.409,0,0,1-2.849,1.016,4.99,4.99,0,0,1-4.876-5.069,5.07,5.07,0,0,1,2.343-4.244c1.939-1.391,6.4-3.861,6.4-3.861A5.581,5.581,0,0,0,3777.3-6337.814Zm12.666-.191a4.053,4.053,0,0,0-1.645.571c-2.542,1.4-8.629,4.954-11.528,6.777a3.25,3.25,0,0,0-1.836,2.723,2.853,2.853,0,0,0,2.786,2.911,3.44,3.44,0,0,0,1.583-.571q3.222-1.629,6.4-3.354a2.948,2.948,0,0,1,3.611.19s8.049,8.317,10.324,10.575c1.471,1.476,3.53.783,4.178.7s3.8-.7,3.8-.7v-15.325s-5.818,1.5-7.662,1.773a4.183,4.183,0,0,1-1.963-.38s-2.327-2.089-4.941-4.37c-1.321-1.154-2.209-1.581-3.1-1.518Z" transform="translate(-3759.844 6346.227)" fill="#fff"/>
      </g>
    </g>
  </g>
</svg>
