<svg xmlns="http://www.w3.org/2000/svg" xmlns:xlink="http://www.w3.org/1999/xlink" width="112.766" height="109.006" viewBox="0 0 112.766 109.006">
  <defs>
    <linearGradient id="linear-gradient" x1="0.5" x2="0.5" y2="1" gradientUnits="objectBoundingBox">
      <stop offset="0" stop-color="#262523"/>
      <stop offset="1" stop-color="#494949"/>
    </linearGradient>
    <filter id="Rectangle_92" x="0" y="0" width="112.766" height="109.006" filterUnits="userSpaceOnUse">
      <feOffset dy="3" input="SourceAlpha"/>
      <feGaussianBlur stdDeviation="3" result="blur"/>
      <feFlood flood-opacity="0.161"/>
      <feComposite operator="in" in2="blur"/>
      <feComposite in="SourceGraphic"/>
    </filter>
    <clipPath id="clip-path">
      <rect id="Rectangle_99" data-name="Rectangle 99" width="48.135" height="49.639" fill="none"/>
    </clipPath>
  </defs>
  <g id="info" transform="translate(9 6)">
    <g transform="matrix(1, 0, 0, 1, -9, -6)" filter="url(#Rectangle_92)">
      <rect id="Rectangle_92-2" data-name="Rectangle 92" width="94.766" height="91.006" rx="18" transform="translate(103.77 97.01) rotate(180)" fill="url(#linear-gradient)"/>
    </g>
    <g id="Group_187" data-name="Group 187" transform="translate(23.686 21.373)">
      <g id="Group_186" data-name="Group 186" transform="translate(0 0)" clip-path="url(#clip-path)">
        <path id="Path_33" data-name="Path 33" d="M3800.4-8282.859a.816.816,0,0,0-.787.565l-1.9,5.619-5.93.072a.824.824,0,0,0-.781.57.826.826,0,0,0,.294.921l4.759,3.545-1.769,5.659a.833.833,0,0,0,.3.923.834.834,0,0,0,.971,0l4.838-3.428,4.839,3.425a.828.828,0,0,0,.971,0,.833.833,0,0,0,.3-.923l-1.769-5.662,4.759-3.542a.828.828,0,0,0,.295-.921.831.831,0,0,0-.781-.573l-5.93-.069-1.9-5.619A.815.815,0,0,0,3800.4-8282.859Zm-11.477-6.943h6.558v1.641a1.642,1.642,0,0,0,1.64,1.64h6.558a1.642,1.642,0,0,0,1.64-1.64v-1.641h6.558a1.613,1.613,0,0,1,1.639,1.641v29.513a1.612,1.612,0,0,1-1.639,1.638h-22.955a1.612,1.612,0,0,1-1.639-1.638v-29.513A1.613,1.613,0,0,1,3788.919-8289.8Zm11.477-4.918a1.614,1.614,0,0,1,1.64,1.639,1.615,1.615,0,0,1-1.64,1.64,1.615,1.615,0,0,1-1.639-1.64A1.614,1.614,0,0,1,3800.4-8294.721Zm0-3.279a4.944,4.944,0,0,0-4.919,4.918h-6.558a4.946,4.946,0,0,0-4.918,4.92v29.513a4.942,4.942,0,0,0,4.918,4.918h22.955a4.943,4.943,0,0,0,4.918-4.918v-29.513a4.946,4.946,0,0,0-4.918-4.92h-6.558A4.944,4.944,0,0,0,3800.4-8298Z" transform="translate(-3777.066 8297.982)" fill="#fff"/>
      </g>
    </g>
  </g>
</svg>
