<svg xmlns="http://www.w3.org/2000/svg" xmlns:xlink="http://www.w3.org/1999/xlink" width="112.766" height="109.006" viewBox="0 0 112.766 109.006">
  <defs>
    <linearGradient id="linear-gradient" x1="0.5" x2="0.5" y2="1" gradientUnits="objectBoundingBox">
      <stop offset="0" stop-color="#a5eda5"/>
      <stop offset="1" stop-color="#4aed6a"/>
    </linearGradient>
    <filter id="Rectangle_131" x="0" y="0" width="112.766" height="109.006" filterUnits="userSpaceOnUse">
      <feOffset dy="3" input="SourceAlpha"/>
      <feGaussianBlur stdDeviation="3" result="blur"/>
      <feFlood flood-opacity="0.161"/>
      <feComposite operator="in" in2="blur"/>
      <feComposite in="SourceGraphic"/>
    </filter>
    <clipPath id="clip-path">
      <rect id="Rectangle_140" data-name="Rectangle 140" width="41.366" height="40.614" fill="none"/>
    </clipPath>
  </defs>
  <g id="much_more" data-name="much more" transform="translate(9 6)">
    <g transform="matrix(1, 0, 0, 1, -9, -6)" filter="url(#Rectangle_131)">
      <rect id="Rectangle_131-2" data-name="Rectangle 131" width="94.766" height="91.006" rx="18" transform="translate(103.77 97.01) rotate(180)" fill="url(#linear-gradient)"/>
    </g>
    <g id="Group_277" data-name="Group 277" transform="translate(26.7 25.196)">
      <g id="Group_276" data-name="Group 276" transform="translate(0 0)" clip-path="url(#clip-path)">
        <path id="Path_48" data-name="Path 48" d="M5832.349-6300.5a3.335,3.335,0,0,0-3.335,3.335,3.335,3.335,0,0,0,3.335,3.335,3.336,3.336,0,0,0,3.335-3.335A3.336,3.336,0,0,0,5832.349-6300.5Zm-10.008,0a3.335,3.335,0,0,0-3.334,3.335,3.335,3.335,0,0,0,3.334,3.335,3.336,3.336,0,0,0,3.336-3.335A3.336,3.336,0,0,0,5822.341-6300.5Zm-10.006,0a3.336,3.336,0,0,0-3.336,3.335,3.335,3.335,0,0,0,3.336,3.335,3.335,3.335,0,0,0,3.335-3.335A3.335,3.335,0,0,0,5812.335-6300.5Z" transform="translate(-5801.871 6317.982)" fill="#fff"/>
      </g>
    </g>
  </g>
</svg>
