<svg xmlns="http://www.w3.org/2000/svg" xmlns:xlink="http://www.w3.org/1999/xlink" width="40.023" height="41.273" viewBox="0 0 40.023 41.273">
  <defs>
    <clipPath id="clip-path">
      <rect id="Rectangle_99" data-name="Rectangle 99" width="40.023" height="41.273" fill="none"/>
    </clipPath>
  </defs>
  <g id="bookmark-icon" clip-path="url(#clip-path)">
    <path id="Path_33" data-name="Path 33" d="M3797.633-8285.411a.678.678,0,0,0-.655.47l-1.58,4.673-4.931.06a.685.685,0,0,0-.65.475.685.685,0,0,0,.245.765l3.957,2.948-1.47,4.705a.693.693,0,0,0,.253.768.7.7,0,0,0,.808,0l4.023-2.85,4.023,2.848a.691.691,0,0,0,.807,0,.693.693,0,0,0,.254-.768l-1.471-4.707,3.957-2.946a.686.686,0,0,0,.245-.765.69.69,0,0,0-.649-.477l-4.931-.058-1.58-4.673A.677.677,0,0,0,3797.633-8285.411Zm-9.543-5.773h5.453v1.364a1.366,1.366,0,0,0,1.364,1.364h5.452a1.366,1.366,0,0,0,1.364-1.364v-1.364h5.453a1.341,1.341,0,0,1,1.363,1.364v24.538a1.34,1.34,0,0,1-1.363,1.362H3788.09a1.34,1.34,0,0,1-1.363-1.362v-24.538A1.341,1.341,0,0,1,3788.09-8291.185Zm9.543-4.089a1.342,1.342,0,0,1,1.364,1.362,1.344,1.344,0,0,1-1.364,1.364,1.344,1.344,0,0,1-1.363-1.364A1.342,1.342,0,0,1,3797.633-8295.273Zm0-2.727a4.11,4.11,0,0,0-4.09,4.089h-5.453a4.112,4.112,0,0,0-4.09,4.091v24.538a4.109,4.109,0,0,0,4.09,4.09h19.086a4.11,4.11,0,0,0,4.089-4.09v-24.538a4.112,4.112,0,0,0-4.089-4.091h-5.453A4.11,4.11,0,0,0,3797.633-8298Z" transform="translate(-3778.235 8297.985)" fill="#fff"/>
  </g>
</svg>
