<svg xmlns="http://www.w3.org/2000/svg" xmlns:xlink="http://www.w3.org/1999/xlink" width="34.394" height="33.769" viewBox="0 0 34.394 33.769">
  <defs>
    <clipPath id="clip-path">
      <rect id="Rectangle_140" data-name="Rectangle 140" width="34.394" height="33.769" fill="none"/>
    </clipPath>
  </defs>
  <g id="dots-icon" clip-path="url(#clip-path)">
    <path id="Path_48" data-name="Path 48" d="M5828.414-6300.5a2.773,2.773,0,0,0-2.773,2.773,2.773,2.773,0,0,0,2.773,2.773,2.773,2.773,0,0,0,2.773-2.773A2.774,2.774,0,0,0,5828.414-6300.5Zm-8.321,0a2.773,2.773,0,0,0-2.772,2.773,2.772,2.772,0,0,0,2.772,2.773,2.773,2.773,0,0,0,2.774-2.773A2.774,2.774,0,0,0,5820.092-6300.5Zm-8.319,0a2.773,2.773,0,0,0-2.773,2.773,2.773,2.773,0,0,0,2.773,2.773,2.773,2.773,0,0,0,2.773-2.773A2.774,2.774,0,0,0,5811.773-6300.5Z" transform="translate(-5803.072 6315.035)" fill="#fff"/>
  </g>
</svg>
