<svg id="ejxnnmvmrwyp1" xmlns="http://www.w3.org/2000/svg" xmlns:xlink="http://www.w3.org/1999/xlink" viewBox="0 0 454.780000 410.550000" shape-rendering="geometricPrecision" text-rendering="geometricPrecision"><defs><clipPath id="ejxnnmvmrwyp2"><rect id="ejxnnmvmrwyp3" width="48.135000" height="49.639000" rx="0" ry="0" fill="none" stroke="none" stroke-width="1"/></clipPath><clipPath id="ejxnnmvmrwyp4"><rect id="ejxnnmvmrwyp5" width="47.383000" height="48.887000" rx="0" ry="0" fill="none" stroke="none" stroke-width="1"/></clipPath><clipPath id="ejxnnmvmrwyp6"><rect id="ejxnnmvmrwyp7" width="44.375000" height="45.879000" rx="0" ry="0" fill="none" stroke="none" stroke-width="1"/></clipPath><clipPath id="ejxnnmvmrwyp8"><rect id="ejxnnmvmrwyp9" width="41.366000" height="40.614000" rx="0" ry="0" fill="none" stroke="none" stroke-width="1"/></clipPath><clipPath id="ejxnnmvmrwyp10"><rect id="ejxnnmvmrwyp11" width="49.639000" height="51.144000" rx="0" ry="0" fill="none" stroke="none" stroke-width="1"/></clipPath><clipPath id="ejxnnmvmrwyp12"><rect id="ejxnnmvmrwyp13" width="46.631000" height="49.639000" rx="0" ry="0" fill="none" stroke="none" stroke-width="1"/></clipPath><filter id="ejxnnmvmrwyp17-filter" x="-400%" width="600%" y="-400%" height="600%"><feGaussianBlur id="ejxnnmvmrwyp17-filter-drop-shadow-0-blur" in="SourceAlpha" stdDeviation="1,1"/><feOffset id="ejxnnmvmrwyp17-filter-drop-shadow-0-offset" dx="0" dy="0" result="tmp"/><feFlood id="ejxnnmvmrwyp17-filter-drop-shadow-0-flood" flood-color="rgb(60,59,59)"/><feComposite id="ejxnnmvmrwyp17-filter-drop-shadow-0-composite" operator="in" in2="tmp"/><feMerge id="ejxnnmvmrwyp17-filter-drop-shadow-0-merge"><feMergeNode id="ejxnnmvmrwyp17-filter-drop-shadow-0-merge-node-1"/><feMergeNode id="ejxnnmvmrwyp17-filter-drop-shadow-0-merge-node-2" in="SourceGraphic"/></feMerge></filter><linearGradient id="ejxnnmvmrwyp17-fill" x1="0.500000" y1="0" x2="0.500000" y2="1" spreadMethod="pad" gradientUnits="objectBoundingBox"><stop id="ejxnnmvmrwyp17-fill-0" offset="0%" stop-color="rgb(38,37,35)"/><stop id="ejxnnmvmrwyp17-fill-1" offset="100%" stop-color="rgb(73,73,73)"/></linearGradient><filter id="ejxnnmvmrwyp23-filter" x="-400%" width="600%" y="-400%" height="600%"><feGaussianBlur id="ejxnnmvmrwyp23-filter-drop-shadow-0-blur" in="SourceAlpha" stdDeviation="1,1"/><feOffset id="ejxnnmvmrwyp23-filter-drop-shadow-0-offset" dx="0" dy="0" result="tmp"/><feFlood id="ejxnnmvmrwyp23-filter-drop-shadow-0-flood" flood-color="rgb(60,59,59)"/><feComposite id="ejxnnmvmrwyp23-filter-drop-shadow-0-composite" operator="in" in2="tmp"/><feMerge id="ejxnnmvmrwyp23-filter-drop-shadow-0-merge"><feMergeNode id="ejxnnmvmrwyp23-filter-drop-shadow-0-merge-node-1"/><feMergeNode id="ejxnnmvmrwyp23-filter-drop-shadow-0-merge-node-2" in="SourceGraphic"/></feMerge></filter><linearGradient id="ejxnnmvmrwyp23-fill" x1="0.500000" y1="0" x2="0.500000" y2="1" spreadMethod="pad" gradientUnits="objectBoundingBox"><stop id="ejxnnmvmrwyp23-fill-0" offset="0%" stop-color="rgb(186,38,215)"/><stop id="ejxnnmvmrwyp23-fill-1" offset="100%" stop-color="rgb(223,131,241)"/></linearGradient><filter id="ejxnnmvmrwyp29-filter" x="-400%" width="600%" y="-400%" height="600%"><feGaussianBlur id="ejxnnmvmrwyp29-filter-drop-shadow-0-blur" in="SourceAlpha" stdDeviation="1,1"/><feOffset id="ejxnnmvmrwyp29-filter-drop-shadow-0-offset" dx="0" dy="0" result="tmp"/><feFlood id="ejxnnmvmrwyp29-filter-drop-shadow-0-flood" flood-color="rgb(60,59,59)"/><feComposite id="ejxnnmvmrwyp29-filter-drop-shadow-0-composite" operator="in" in2="tmp"/><feMerge id="ejxnnmvmrwyp29-filter-drop-shadow-0-merge"><feMergeNode id="ejxnnmvmrwyp29-filter-drop-shadow-0-merge-node-1"/><feMergeNode id="ejxnnmvmrwyp29-filter-drop-shadow-0-merge-node-2" in="SourceGraphic"/></feMerge></filter><linearGradient id="ejxnnmvmrwyp29-fill" x1="0.500000" y1="0" x2="0.500000" y2="1" spreadMethod="pad" gradientUnits="objectBoundingBox"><stop id="ejxnnmvmrwyp29-fill-0" offset="0%" stop-color="rgb(243,101,143)"/><stop id="ejxnnmvmrwyp29-fill-1" offset="100%" stop-color="rgb(230,24,113)"/></linearGradient><filter id="ejxnnmvmrwyp35-filter" x="-400%" width="600%" y="-400%" height="600%"><feGaussianBlur id="ejxnnmvmrwyp35-filter-drop-shadow-0-blur" in="SourceAlpha" stdDeviation="1,1"/><feOffset id="ejxnnmvmrwyp35-filter-drop-shadow-0-offset" dx="0" dy="0" result="tmp"/><feFlood id="ejxnnmvmrwyp35-filter-drop-shadow-0-flood" flood-color="rgb(60,59,59)"/><feComposite id="ejxnnmvmrwyp35-filter-drop-shadow-0-composite" operator="in" in2="tmp"/><feMerge id="ejxnnmvmrwyp35-filter-drop-shadow-0-merge"><feMergeNode id="ejxnnmvmrwyp35-filter-drop-shadow-0-merge-node-1"/><feMergeNode id="ejxnnmvmrwyp35-filter-drop-shadow-0-merge-node-2" in="SourceGraphic"/></feMerge></filter><linearGradient id="ejxnnmvmrwyp35-fill" x1="0.500000" y1="0" x2="0.500000" y2="1" spreadMethod="pad" gradientUnits="objectBoundingBox"><stop id="ejxnnmvmrwyp35-fill-0" offset="0%" stop-color="rgb(165,237,165)"/><stop id="ejxnnmvmrwyp35-fill-1" offset="100%" stop-color="rgb(74,237,106)"/></linearGradient><filter id="ejxnnmvmrwyp41-filter" x="-400%" width="600%" y="-400%" height="600%"><feGaussianBlur id="ejxnnmvmrwyp41-filter-drop-shadow-0-blur" in="SourceAlpha" stdDeviation="1,1"/><feOffset id="ejxnnmvmrwyp41-filter-drop-shadow-0-offset" dx="0" dy="0" result="tmp"/><feFlood id="ejxnnmvmrwyp41-filter-drop-shadow-0-flood" flood-color="rgb(60,59,59)"/><feComposite id="ejxnnmvmrwyp41-filter-drop-shadow-0-composite" operator="in" in2="tmp"/><feMerge id="ejxnnmvmrwyp41-filter-drop-shadow-0-merge"><feMergeNode id="ejxnnmvmrwyp41-filter-drop-shadow-0-merge-node-1"/><feMergeNode id="ejxnnmvmrwyp41-filter-drop-shadow-0-merge-node-2" in="SourceGraphic"/></feMerge></filter><linearGradient id="ejxnnmvmrwyp41-fill" x1="0.500000" y1="0" x2="0.500000" y2="1" spreadMethod="pad" gradientUnits="objectBoundingBox"><stop id="ejxnnmvmrwyp41-fill-0" offset="0%" stop-color="rgb(117,22,227)"/><stop id="ejxnnmvmrwyp41-fill-1" offset="100%" stop-color="rgb(181,88,252)"/></linearGradient><filter id="ejxnnmvmrwyp47-filter" x="-400%" width="600%" y="-400%" height="600%"><feGaussianBlur id="ejxnnmvmrwyp47-filter-drop-shadow-0-blur" in="SourceAlpha" stdDeviation="1,1"/><feOffset id="ejxnnmvmrwyp47-filter-drop-shadow-0-offset" dx="0" dy="0" result="tmp"/><feFlood id="ejxnnmvmrwyp47-filter-drop-shadow-0-flood" flood-color="rgb(60,59,59)"/><feComposite id="ejxnnmvmrwyp47-filter-drop-shadow-0-composite" operator="in" in2="tmp"/><feMerge id="ejxnnmvmrwyp47-filter-drop-shadow-0-merge"><feMergeNode id="ejxnnmvmrwyp47-filter-drop-shadow-0-merge-node-1"/><feMergeNode id="ejxnnmvmrwyp47-filter-drop-shadow-0-merge-node-2" in="SourceGraphic"/></feMerge></filter><linearGradient id="ejxnnmvmrwyp47-fill" x1="0.500000" y1="0" x2="0.500000" y2="1" spreadMethod="pad" gradientUnits="objectBoundingBox"><stop id="ejxnnmvmrwyp47-fill-0" offset="0%" stop-color="rgb(107,125,242)"/><stop id="ejxnnmvmrwyp47-fill-1" offset="100%" stop-color="rgb(21,113,219)"/></linearGradient></defs><g id="ejxnnmvmrwyp14" transform="matrix(1 0 0 1 94.13623107499998 65.00299683500000)"><g id="ejxnnmvmrwyp15" transform="matrix(1 0 0 1 265.86674785000002 -39.41399430999999)" opacity="0"><g id="ejxnnmvmrwyp16" transform="matrix(1 0 0 1 -181.22999999999999 -54.89000000000000)"><rect id="ejxnnmvmrwyp17" width="94.766000" height="91.006000" rx="18" ry="18" transform="matrix(-1 0 -0 -1 276 145.90000000000001)" filter="url(#ejxnnmvmrwyp17-filter)" fill="url(#ejxnnmvmrwyp17-fill)" stroke="none" stroke-width="1"/></g><g id="ejxnnmvmrwyp18" transform="matrix(1 0 0 1 23.68600000000000 21.37300000000000)"><g id="ejxnnmvmrwyp19" clip-path="url(#ejxnnmvmrwyp2)"><path id="ejxnnmvmrwyp20" d="M3800.400000,-8282.859000C3800.042153,-8282.863623,3799.723052,-8282.634536,3799.613000,-8282.294000L3797.713000,-8276.675000L3791.783000,-8276.603000C3791.426838,-8276.601757,3791.111786,-8276.371822,3791.002000,-8276.033000C3790.891338,-8275.694721,3791.009808,-8275.323595,3791.296000,-8275.112000L3796.055000,-8271.567000L3794.286000,-8265.908000C3794.177932,-8265.567835,3794.298586,-8265.196623,3794.586000,-8264.985000C3794.876301,-8264.777159,3795.266699,-8264.777159,3795.557000,-8264.985000L3800.395000,-8268.413000L3805.234000,-8264.988000C3805.523702,-8264.778302,3805.915298,-8264.778302,3806.205000,-8264.988000C3806.492414,-8265.199623,3806.613068,-8265.570835,3806.505000,-8265.911000L3804.736000,-8271.573000L3809.495000,-8275.115000C3809.781030,-8275.326710,3809.899797,-8275.697505,3809.790000,-8276.036000C3809.679411,-8276.374668,3809.365246,-8276.605163,3809.009000,-8276.609000L3803.079000,-8276.678000L3801.179000,-8282.297000C3801.069048,-8282.633710,3800.754203,-8282.860852,3800.400000,-8282.859000ZM3788.923000,-8289.802000L3795.481000,-8289.802000L3795.481000,-8288.161000C3795.482102,-8287.255710,3796.215710,-8286.522102,3797.121000,-8286.521000L3803.679000,-8286.521000C3804.584290,-8286.522102,3805.317898,-8287.255710,3805.319000,-8288.161000L3805.319000,-8289.802000L3811.877000,-8289.802000C3812.314181,-8289.809115,3812.735520,-8289.638444,3813.044505,-8289.329081C3813.353491,-8289.019718,3813.523648,-8288.598172,3813.516000,-8288.161000L3813.516000,-8258.648000C3813.523107,-8258.211261,3813.352678,-8257.790334,3813.043722,-8257.481566C3812.734766,-8257.172799,3812.313734,-8257.002626,3811.877000,-8257.010000L3788.922000,-8257.010000C3788.485266,-8257.002626,3788.064234,-8257.172799,3787.755278,-8257.481566C3787.446322,-8257.790334,3787.275893,-8258.211261,3787.283000,-8258.648000L3787.283000,-8288.161000C3787.275921,-8288.597299,3787.445912,-8289.017852,3787.754180,-8289.326685C3788.062448,-8289.635518,3788.482689,-8289.806279,3788.919000,-8289.800000ZM3800.400000,-8294.720000C3800.836917,-8294.727093,3801.258038,-8294.556724,3801.567119,-8294.247831C3801.876201,-8293.938938,3802.046826,-8293.517921,3802.040000,-8293.081000C3802.046819,-8292.643990,3801.876224,-8292.222876,3801.567174,-8291.913826C3801.258124,-8291.604776,3800.837010,-8291.434181,3800.400000,-8291.441000C3799.963162,-8291.434454,3799.542309,-8291.605170,3799.233478,-8291.914190C3798.924647,-8292.223209,3798.754188,-8292.644166,3798.761000,-8293.081000C3798.753907,-8293.517917,3798.924276,-8293.939038,3799.233169,-8294.248119C3799.542062,-8294.557201,3799.963079,-8294.727826,3800.400000,-8294.721000ZM3800.400000,-8297.999000C3797.689383,-8297.985331,3795.495221,-8295.791614,3795.481000,-8293.081000L3788.923000,-8293.081000C3786.212450,-8293.065692,3784.019206,-8290.871556,3784.005000,-8288.161000L3784.005000,-8258.648000C3784.018132,-8255.937322,3786.212322,-8253.743132,3788.923000,-8253.730000L3811.878000,-8253.730000C3814.588452,-8253.743674,3816.782326,-8255.937548,3816.796000,-8258.648000L3816.796000,-8288.161000C3816.781794,-8290.871556,3814.588550,-8293.065692,3811.878000,-8293.081000L3805.320000,-8293.081000C3805.306321,-8295.792392,3803.111395,-8297.986872,3800.400000,-8298Z" transform="matrix(1 0 0 1 -3777.07000000000016 8297.97999999999956)" fill="rgb(255,255,255)" stroke="none" stroke-width="1"/></g></g></g><g id="ejxnnmvmrwyp21" transform="matrix(1 0 0 1 -94.13324355999998 229.27299785500003)" opacity="0"><g id="ejxnnmvmrwyp22" transform="matrix(1 0 0 1 -9 -164.69999999999999)"><rect id="ejxnnmvmrwyp23" width="94.766000" height="91.006000" rx="18" ry="18" transform="matrix(-1 0 -0 -1 103.77000007999999 255.69999999999999)" filter="url(#ejxnnmvmrwyp23-filter)" fill="url(#ejxnnmvmrwyp23-fill)" stroke="none" stroke-width="1"/></g><g id="ejxnnmvmrwyp24" transform="matrix(1 0 0 1 23.69200000000000 21.41600000000000)"><g id="ejxnnmvmrwyp25" clip-path="url(#ejxnnmvmrwyp4)"><path id="ejxnnmvmrwyp26" d="M3766.725000,-6318.246000C3765.915039,-6318.206478,3765.148408,-6317.868405,3764.573000,-6317.297000C3763.373000,-6316.097000,3762.617000,-6313.940000,3763.685000,-6312.676000C3764.753000,-6311.412000,3765.975000,-6312.198000,3766.916000,-6312.419000C3766.654000,-6311.452000,3765.894000,-6310.513000,3766.853000,-6309.255000C3767.812000,-6307.997000,3769.141000,-6308.776000,3770.083000,-6308.998000C3769.819000,-6308.035000,3769.092000,-6307.069000,3770.018000,-6305.898000C3770.944000,-6304.727000,3772.434000,-6305.318000,3773.439000,-6305.642000C3773.053000,-6304.608000,3772.239000,-6303.481000,3773.312000,-6302.224000C3774.385000,-6300.967000,3776.853000,-6301.535000,3778.062000,-6302.731000C3779.261078,-6303.851742,3779.372705,-6305.715124,3778.316000,-6306.971000C3777.570716,-6307.719555,3776.458820,-6307.967683,3775.466000,-6307.607000C3775.905936,-6308.601906,3775.733479,-6309.761227,3775.023000,-6310.585000C3774.348045,-6311.273664,3773.352477,-6311.541702,3772.423000,-6311.285000C3772.721632,-6312.230402,3772.505998,-6313.263097,3771.854000,-6314.010000C3771.178469,-6314.697701,3770.182196,-6314.963246,3769.254000,-6314.703000C3769.553805,-6315.647705,3769.338853,-6316.680382,3768.687000,-6317.427000C3768.185490,-6317.975566,3767.467688,-6318.275199,3766.725000,-6318.246000ZM3777.302000,-6337.814000C3774.325000,-6337.814000,3768.120000,-6333.573000,3768.120000,-6333.573000C3766.786140,-6332.848173,3765.186952,-6332.801390,3763.813000,-6333.447000L3759,-6335.157000L3759,-6317.739000C3759,-6317.739000,3760.354000,-6317.315000,3761.600000,-6316.790000C3761.889363,-6317.626530,3762.366577,-6318.385624,3762.995000,-6319.009000C3765.008235,-6321.051132,3768.294677,-6321.077975,3770.341000,-6319.069000C3770.911065,-6318.461053,3771.323129,-6317.722428,3771.541000,-6316.918000C3772.292740,-6316.669925,3772.968967,-6316.234592,3773.506000,-6315.653000C3774.059446,-6315.040365,3774.451281,-6314.299315,3774.646000,-6313.497000C3775.418259,-6313.254083,3776.115877,-6312.818373,3776.673000,-6312.231000C3777.276276,-6311.571633,3777.690798,-6310.761934,3777.873000,-6309.887000C3778.669311,-6309.659511,3779.390244,-6309.223084,3779.961000,-6308.623000C3781.043424,-6307.417647,3781.511060,-6305.781293,3781.229000,-6304.186000C3780.946940,-6302.590707,3781.929000,-6303.372000,3782.368000,-6302.918000C3782.766044,-6302.505372,3783.314675,-6302.272203,3783.888000,-6302.272000C3784.461625,-6302.272163,3785.010581,-6302.505316,3785.409000,-6302.918000C3786.239138,-6303.810469,3786.239138,-6305.192531,3785.409000,-6306.085000C3785.378000,-6306.117000,3782.346000,-6309.285000,3782.621000,-6309.571000C3782.896000,-6309.857000,3786.667000,-6305.777000,3786.738000,-6305.706000C3787.135001,-6305.291736,3787.684220,-6305.057956,3788.258000,-6305.059000C3788.831780,-6305.057956,3789.380999,-6305.291736,3789.778000,-6305.706000C3790.606449,-6306.573286,3790.606449,-6307.938714,3789.778000,-6308.806000C3789.739000,-6308.848000,3786.264000,-6312.630000,3786.487000,-6312.861000C3786.730000,-6313.123000,3790.973000,-6308.620000,3790.981000,-6308.620000C3791.373941,-6308.237464,3791.903711,-6308.028221,3792.452000,-6308.039000C3793.000236,-6308.050340,3793.520772,-6308.282130,3793.896000,-6308.682000C3794.668323,-6309.506797,3794.721463,-6310.772363,3794.021000,-6311.659000C3794.005000,-6311.705000,3790.508000,-6315.610000,3790.728000,-6315.839000C3790.948000,-6316.068000,3794.520000,-6312.361000,3794.528000,-6312.353000C3794.925670,-6311.940428,3795.473975,-6311.707244,3796.047000,-6311.707000C3796.620672,-6311.706932,3797.169715,-6311.940122,3797.568000,-6312.353000C3798.398271,-6313.245802,3798.398271,-6314.628198,3797.568000,-6315.521000C3797.552000,-6315.538000,3792.891000,-6320.336000,3788.195000,-6325.209000C3787.327142,-6326.067786,3786.027239,-6326.318846,3784.902000,-6325.845000C3783.596000,-6325.252000,3781.925000,-6324.438000,3780.658000,-6323.819000C3779.777550,-6323.310914,3778.812271,-6322.966680,3777.809000,-6322.803000C3775.066714,-6322.865311,3772.888866,-6325.129361,3772.933000,-6327.872000C3772.943252,-6329.592593,3773.825447,-6331.190559,3775.276000,-6332.116000C3777.215000,-6333.507000,3781.676000,-6335.977000,3781.676000,-6335.977000C3780.563315,-6337.209932,3778.959334,-6337.883267,3777.300000,-6337.814000ZM3789.968000,-6338.005000C3789.384774,-6337.936095,3788.823488,-6337.741266,3788.323000,-6337.434000C3785.781000,-6336.034000,3779.694000,-6332.480000,3776.795000,-6330.657000C3775.735681,-6330.148055,3775.033651,-6329.106863,3774.959000,-6327.934000C3774.926602,-6326.361642,3776.172734,-6325.059599,3777.745000,-6325.023000C3778.311802,-6325.079341,3778.855744,-6325.275545,3779.328000,-6325.594000Q3782.550000,-6327.223000,3785.728000,-6328.948000C3786.833746,-6329.716980,3788.320059,-6329.638774,3789.339000,-6328.758000C3790.357941,-6327.877226,3797.388000,-6320.441000,3799.663000,-6318.183000C3801.134000,-6316.707000,3803.193000,-6317.400000,3803.841000,-6317.483000C3804.489000,-6317.566000,3807.641000,-6318.183000,3807.641000,-6318.183000L3807.641000,-6333.508000C3807.641000,-6333.508000,3801.823000,-6332.008000,3799.979000,-6331.735000C3799.303569,-6331.701122,3798.629995,-6331.831513,3798.016000,-6332.115000C3797.402005,-6332.398487,3795.689000,-6334.204000,3793.075000,-6336.485000C3791.754000,-6337.639000,3790.866000,-6338.066000,3789.975000,-6338.003000Z" transform="matrix(1 0 0 1 -3759.84000000000015 6346.22999999999956)" fill="rgb(255,255,255)" stroke="none" stroke-width="1"/></g></g></g><g id="ejxnnmvmrwyp27" transform="matrix(1 0 0 1 87.24975322000000 254.53000000000000)" opacity="0"><g id="ejxnnmvmrwyp28" transform="matrix(1 0 0 1 -96.25000000000000 -195.53000000000000)"><rect id="ejxnnmvmrwyp29" width="94.766000" height="91.006000" rx="18" ry="18" transform="matrix(-1 0 -0 -1 191.00999999999999 286.54000000000002)" filter="url(#ejxnnmvmrwyp29-filter)" fill="url(#ejxnnmvmrwyp29-fill)" stroke="none" stroke-width="1"/></g><g id="ejxnnmvmrwyp30" transform="matrix(1 0 0 1 25.19600000000000 23.84100000000000)"><g id="ejxnnmvmrwyp31" clip-path="url(#ejxnnmvmrwyp6)"><path id="ejxnnmvmrwyp32" d="M1769.379000,-6346.700000L1780.788000,-6346.700000L1780.788000,-6339.094000L1769.379000,-6339.094000ZM1761.773000,-6349.971000C1755.670852,-6348.404644,1751.170846,-6343.231308,1750.465000,-6336.971000L1746.865000,-6331.325000C1746.588953,-6330.893476,1746.517586,-6330.362065,1746.670000,-6329.873000C1746.821491,-6329.383467,1747.182787,-6328.986627,1747.656000,-6328.790000L1750.368000,-6327.645000L1750.368000,-6321.980000C1750.368000,-6320.972177,1750.768356,-6320.005632,1751.480994,-6319.292994C1752.193632,-6318.580356,1753.160177,-6318.180000,1754.168000,-6318.180000L1757.968000,-6318.180000L1757.968000,-6312.475000L1775.082000,-6312.475000L1775.082000,-6317.724000C1775.082000,-6325.414000,1779.100000,-6325.890000,1780.387000,-6331.491000L1772.853000,-6331.491000L1768.263000,-6326.900000C1767.176425,-6325.809369,1765.539168,-6325.482104,1764.116831,-6326.071239C1762.694494,-6326.660374,1761.768162,-6328.049483,1761.771000,-6329.589000ZM1769.379000,-6350.503000C1767.283960,-6350.494234,1765.587766,-6348.798040,1765.579000,-6346.703000L1765.579000,-6329.589000L1771.279000,-6335.289000L1780.786000,-6335.289000C1782.881494,-6335.296678,1784.578322,-6336.993506,1784.586000,-6339.089000L1784.586000,-6346.695000C1784.577234,-6348.790040,1782.881040,-6350.486234,1780.786000,-6350.495000Z" transform="matrix(1 0 0 1 -1743.88000000000011 6353.27000000000044)" fill="rgb(255,255,255)" stroke="none" stroke-width="1"/></g></g></g><g id="ejxnnmvmrwyp33" transform="matrix(1 0 0 1 265.49623918499901 229.27299785000000)" opacity="0"><g id="ejxnnmvmrwyp34" transform="matrix(1 0 0 1 -181.22999999999999 -164.69999999999999)"><rect id="ejxnnmvmrwyp35" width="94.766000" height="91.006000" rx="18" ry="18" transform="matrix(-1 0 -0 -1 276.37051733999999 255.69999999999999)" filter="url(#ejxnnmvmrwyp35-filter)" fill="url(#ejxnnmvmrwyp35-fill)" stroke="none" stroke-width="1"/></g><g id="ejxnnmvmrwyp36" transform="matrix(1 0 0 1 26.70000000000000 25.19600000000000)"><g id="ejxnnmvmrwyp37" clip-path="url(#ejxnnmvmrwyp8)"><path id="ejxnnmvmrwyp38" d="M5832.349000,-6300.500000C5831.464503,-6300.500000,5830.616233,-6300.148635,5829.990799,-6299.523201C5829.365365,-6298.897767,5829.014000,-6298.049497,5829.014000,-6297.165000C5829.014000,-6296.280503,5829.365365,-6295.432233,5829.990799,-6294.806799C5830.616233,-6294.181365,5831.464503,-6293.830000,5832.349000,-6293.830000C5834.190641,-6293.830552,5835.683448,-6295.323359,5835.684000,-6297.165000C5835.683448,-6299.006641,5834.190641,-6300.499448,5832.349000,-6300.500000ZM5822.341000,-6300.500000C5820.499521,-6300.499448,5819.007000,-6299.006479,5819.007000,-6297.165000C5819.007000,-6295.323521,5820.499521,-6293.830552,5822.341000,-6293.830000C5824.183031,-6293.830000,5825.676448,-6295.322969,5825.677000,-6297.165000C5825.676448,-6299.007031,5824.183031,-6300.500000,5822.341000,-6300.500000ZM5812.335000,-6300.500000C5810.492969,-6300.500000,5808.999552,-6299.007031,5808.999000,-6297.165000C5808.999000,-6296.280330,5809.350502,-6295.431908,5809.976152,-6294.806445C5810.601803,-6294.180983,5811.450330,-6293.829735,5812.335000,-6293.830000C5813.219497,-6293.830000,5814.067767,-6294.181365,5814.693201,-6294.806799C5815.318635,-6295.432233,5815.670000,-6296.280503,5815.670000,-6297.165000C5815.670000,-6298.049497,5815.318635,-6298.897767,5814.693201,-6299.523201C5814.067767,-6300.148635,5813.219497,-6300.500000,5812.335000,-6300.500000Z" transform="matrix(1 0 0 1 -5801.86999999999989 6317.97999999999956)" fill="rgb(255,255,255)" stroke="none" stroke-width="1"/></g></g></g><g id="ejxnnmvmrwyp39" transform="matrix(1 0 0 1 87.24975321999992 -65)" opacity="0"><g id="ejxnnmvmrwyp40" transform="matrix(1 0 0 1 -96.25000000000000 -6)"><rect id="ejxnnmvmrwyp41" width="94.766000" height="91.006000" rx="18" ry="18" transform="matrix(-1 0 -0 -1 191.00999999999999 97.01000000000001)" filter="url(#ejxnnmvmrwyp41-filter)" fill="url(#ejxnnmvmrwyp41-fill)" stroke="none" stroke-width="1"/></g><g id="ejxnnmvmrwyp42" transform="matrix(1 0 0 1 23.26800000000000 20.98000000000000)"><g id="ejxnnmvmrwyp43" clip-path="url(#ejxnnmvmrwyp10)"><path id="ejxnnmvmrwyp44" d="M5813.100000,-8285.500000C5812.545397,-8285.499912,5812.014026,-8285.277276,5811.625000,-8284.882000L5790.667000,-8266.598000C5790.401037,-8266.401701,5790.244352,-8266.090559,5790.245000,-8265.760000C5790.246104,-8265.187119,5790.711118,-8264.723447,5791.284000,-8264.724000L5796.478000,-8264.724000L5796.478000,-8248.102000C5796.478552,-8246.954743,5797.408743,-8246.025000,5798.556000,-8246.025000L5806.867000,-8246.025000C5808.014257,-8246.025000,5808.944448,-8246.954743,5808.945000,-8248.102000L5808.945000,-8260.569000L5817.256000,-8260.569000L5817.256000,-8248.102000C5817.256265,-8247.550880,5817.475451,-8247.022438,5817.865339,-8246.632925C5818.255227,-8246.243412,5818.783880,-8246.024735,5819.335000,-8246.025000L5827.645000,-8246.025000C5828.792257,-8246.025000,5829.722448,-8246.954743,5829.723000,-8248.102000L5829.723000,-8264.724000L5834.917000,-8264.724000C5835.489882,-8264.723447,5835.954896,-8265.187119,5835.956000,-8265.760000C5835.956722,-8266.090343,5835.800460,-8266.401383,5835.535000,-8266.598000L5814.591000,-8284.871000L5814.579000,-8284.882000C5814.188617,-8285.277696,5813.655855,-8285.500310,5813.100000,-8285.500000Z" transform="matrix(1 0 0 1 -5788.85999999999967 8290.11000000000058)" fill="rgb(255,255,255)" stroke="none" stroke-width="1"/></g></g></g><g id="ejxnnmvmrwyp45" transform="matrix(1 0 0 1 -93.63174819999995 -39.73600101000001)" opacity="0"><g id="ejxnnmvmrwyp46" transform="matrix(1 0 0 1 -9 -54.89000000000000)"><rect id="ejxnnmvmrwyp47" width="94.766000" height="91.006000" rx="18" ry="18" transform="matrix(-1 0 -0 -1 103.26849999999999 145.90499999999997)" filter="url(#ejxnnmvmrwyp47-filter)" fill="url(#ejxnnmvmrwyp47-fill)" stroke="none" stroke-width="1"/></g><g id="ejxnnmvmrwyp48" transform="matrix(1 0 0 1 24.06800000000000 21.05900000000000)"><g id="ejxnnmvmrwyp49" clip-path="url(#ejxnnmvmrwyp12)"><path id="ejxnnmvmrwyp50" d="M1746.406000,-8266.848000L1782.772000,-8266.848000L1782.772000,-8245.636000L1746.406000,-8245.636000ZM1743.375000,-8269.881000L1743.375000,-8242.605000L1763.075000,-8242.605000L1763.075000,-8239.574000L1755.500000,-8239.574000L1755.500000,-8236.544000L1773.683000,-8236.544000L1773.683000,-8239.574000L1766.100000,-8239.574000L1766.100000,-8242.605000L1785.800000,-8242.605000L1785.800000,-8269.881000Z" transform="matrix(1 0 0 1 -1741.76999999999998 8279.45000000000073)" fill="rgb(255,255,255)" stroke="none" stroke-width="1"/></g></g></g></g><script><![CDATA[!function(t,n){"object"==typeof exports&&"undefined"!=typeof module?module.exports=n():"function"==typeof define&&define.amd?define(n):(t=t||self).__SVGATOR_PLAYER__=n()}(this,(function(){"use strict";function t(n){return(t="function"==typeof Symbol&&"symbol"==typeof Symbol.iterator?function(t){return typeof t}:function(t){return t&&"function"==typeof Symbol&&t.constructor===Symbol&&t!==Symbol.prototype?"symbol":typeof t})(n)}function n(t,n){if(!(t instanceof n))throw new TypeError("Cannot call a class as a function")}function r(t,n){for(var r=0;r<n.length;r++){var e=n[r];e.enumerable=e.enumerable||!1,e.configurable=!0,"value"in e&&(e.writable=!0),Object.defineProperty(t,e.key,e)}}function e(t,n,e){return n&&r(t.prototype,n),e&&r(t,e),t}var i=Math.abs;function u(t){return t}function o(t,n,r){var e=1-r;return 3*r*e*(t*e+n*r)+r*r*r}function a(){var t=arguments.length>0&&void 0!==arguments[0]?arguments[0]:0,n=arguments.length>1&&void 0!==arguments[1]?arguments[1]:0,r=arguments.length>2&&void 0!==arguments[2]?arguments[2]:1,e=arguments.length>3&&void 0!==arguments[3]?arguments[3]:1;return t<0||t>1||r<0||r>1?null:i(t-n)<=1e-5&&i(r-e)<=1e-5?u:function(u){if(u<=0)return t>0?u*n/t:0===n&&r>0?u*e/r:0;if(u>=1)return r<1?1+(u-1)*(e-1)/(r-1):1===r&&t<1?1+(u-1)*(n-1)/(t-1):1;for(var a,l=0,f=1;l<f;){var s=o(t,r,a=(l+f)/2);if(i(u-s)<1e-5)break;s<u?l=a:f=a}return o(n,e,a)}}function l(){return 1}function f(t){return 1===t?1:0}function s(){var t=arguments.length>0&&void 0!==arguments[0]?arguments[0]:1,n=arguments.length>1&&void 0!==arguments[1]?arguments[1]:0;if(1===t){if(0===n)return f;if(1===n)return l}var r=1/t;return function(t){return t>=1?1:(t+=n*r)-t%r}}function c(t){var n=arguments.length>1&&void 0!==arguments[1]?arguments[1]:2;if(Number.isInteger(t))return t;var r=Math.pow(10,n);return Math.round(t*r)/r}var v=Math.PI/180;function h(t,n,r){return t>=.5?r:n}function y(t,n,r){return 0===t||n===r?n:t*(r-n)+n}function d(t,n,r){var e=y(t,n,r);return e<=0?0:e}function g(t,n,r){return 0===t?n:1===t?r:{x:y(t,n.x,r.x),y:y(t,n.y,r.y)}}function m(t,n,r){return 0===t?n:1===t?r:{x:d(t,n.x,r.x),y:d(t,n.y,r.y)}}function p(t,n,r){var e=function(t,n,r){return Math.round(y(t,n,r))}(t,n,r);return e<=0?0:e>=255?255:e}function b(t,n,r){return 0===t?n:1===t?r:{r:p(t,n.r,r.r),g:p(t,n.g,r.g),b:p(t,n.b,r.b),a:y(t,null==n.a?1:n.a,null==r.a?1:r.a)}}function w(t,n,r){if(0===t)return n;if(1===t)return r;var e=n.length;if(e!==r.length)return h(t,n,r);for(var i=[],u=0;u<e;u++)i.push(b(t,n[u],r[u]));return i}function A(t,n,r){var e=n.length;if(e!==r.length)return h(t,n,r);for(var i=new Array(e),u=0;u<e;u++)i[u]=y(t,n[u],r[u]);return i}function x(t,n){for(var r=[],e=0;e<t;e++)r.push(n);return r}function k(t,n){if(--n<=0)return t;var r=(t=Object.assign([],t)).length;do{for(var e=0;e<r;e++)t.push(t[e])}while(--n>0);return t}var S=/\.0+$/g;function _(t){return Number.isInteger(t)?t+"":t.toFixed(6).replace(S,"")}function M(t){var n=arguments.length>1&&void 0!==arguments[1]?arguments[1]:" ";return t&&t.length?t.map(_).join(n):""}function I(t){return _(t.x)+","+_(t.y)}function E(t){return t?null==t.a||t.a>=1?"rgb("+t.r+","+t.g+","+t.b+")":"rgba("+t.r+","+t.g+","+t.b+","+t.a+")":"transparent"}var F={f:null,i:m,u:function(t,n){return function(r){var e=n(r);t.setAttribute("rx",_(e.x)),t.setAttribute("ry",_(e.y))}}},B={f:null,i:function(t,n,r){return 0===t?n:1===t?r:{width:d(t,n.width,r.width),height:d(t,n.height,r.height)}},u:function(t,n){return function(r){var e=n(r);t.setAttribute("width",_(e.width)),t.setAttribute("height",_(e.height))}}},j=Math.sin,q=Math.cos,P=Math.acos,O=Math.asin,z=Math.tan,L=Math.atan2,C=Math.PI/180,R=180/Math.PI,T=Math.sqrt,V=function(){function t(){var r=arguments.length>0&&void 0!==arguments[0]?arguments[0]:1,e=arguments.length>1&&void 0!==arguments[1]?arguments[1]:0,i=arguments.length>2&&void 0!==arguments[2]?arguments[2]:0,u=arguments.length>3&&void 0!==arguments[3]?arguments[3]:1,o=arguments.length>4&&void 0!==arguments[4]?arguments[4]:0,a=arguments.length>5&&void 0!==arguments[5]?arguments[5]:0;n(this,t),this.m=[r,e,i,u,o,a],this.i=null,this.w=null,this.s=null}return e(t,[{key:"point",value:function(t,n){var r=this.m;return{x:r[0]*t+r[2]*n+r[4],y:r[1]*t+r[3]*n+r[5]}}},{key:"translateSelf",value:function(){var t=arguments.length>0&&void 0!==arguments[0]?arguments[0]:0,n=arguments.length>1&&void 0!==arguments[1]?arguments[1]:0;if(!t&&!n)return this;var r=this.m;return r[4]+=r[0]*t+r[2]*n,r[5]+=r[1]*t+r[3]*n,this.w=this.s=this.i=null,this}},{key:"rotateSelf",value:function(){var t=arguments.length>0&&void 0!==arguments[0]?arguments[0]:0;if(t%=360){var n=j(t*=C),r=q(t),e=this.m,i=e[0],u=e[1];e[0]=i*r+e[2]*n,e[1]=u*r+e[3]*n,e[2]=e[2]*r-i*n,e[3]=e[3]*r-u*n,this.w=this.s=this.i=null}return this}},{key:"scaleSelf",value:function(){var t=arguments.length>0&&void 0!==arguments[0]?arguments[0]:1,n=arguments.length>1&&void 0!==arguments[1]?arguments[1]:1;if(1!==t||1!==n){var r=this.m;r[0]*=t,r[1]*=t,r[2]*=n,r[3]*=n,this.w=this.s=this.i=null}return this}},{key:"skewSelf",value:function(t,n){if(n%=360,(t%=360)||n){var r=this.m,e=r[0],i=r[1],u=r[2],o=r[3];t&&(t=z(t*C),r[2]+=e*t,r[3]+=i*t),n&&(n=z(n*C),r[0]+=u*n,r[1]+=o*n),this.w=this.s=this.i=null}return this}},{key:"resetSelf",value:function(){var t=arguments.length>0&&void 0!==arguments[0]?arguments[0]:1,n=arguments.length>1&&void 0!==arguments[1]?arguments[1]:0,r=arguments.length>2&&void 0!==arguments[2]?arguments[2]:0,e=arguments.length>3&&void 0!==arguments[3]?arguments[3]:1,i=arguments.length>4&&void 0!==arguments[4]?arguments[4]:0,u=arguments.length>5&&void 0!==arguments[5]?arguments[5]:0,o=this.m;return o[0]=t,o[1]=n,o[2]=r,o[3]=e,o[4]=i,o[5]=u,this.w=this.s=this.i=null,this}},{key:"recomposeSelf",value:function(){var t=arguments.length>0&&void 0!==arguments[0]?arguments[0]:null,n=arguments.length>1&&void 0!==arguments[1]?arguments[1]:null,r=arguments.length>2&&void 0!==arguments[2]?arguments[2]:null,e=arguments.length>3&&void 0!==arguments[3]?arguments[3]:null,i=arguments.length>4&&void 0!==arguments[4]?arguments[4]:null;return this.isIdentity||this.resetSelf(),t&&(t.x||t.y)&&this.translateSelf(t.x,t.y),n&&this.rotateSelf(n),r&&(r.x&&this.skewSelf(r.x,0),r.y&&this.skewSelf(0,r.y)),!e||1===e.x&&1===e.y||this.scaleSelf(e.x,e.y),i&&(i.x||i.y)&&this.translateSelf(i.x,i.y),this}},{key:"decompose",value:function(){var t=arguments.length>0&&void 0!==arguments[0]?arguments[0]:0,n=arguments.length>1&&void 0!==arguments[1]?arguments[1]:0,r=this.m,e=r[0]*r[0]+r[1]*r[1],i=[[r[0],r[1]],[r[2],r[3]]],u=T(e);if(0===u)return{origin:{x:r[4],y:r[5]},translate:{x:t,y:n},scale:{x:0,y:0},skew:{x:0,y:0},rotate:0};i[0][0]/=u,i[0][1]/=u;var o=r[0]*r[3]-r[1]*r[2]<0;o&&(u=-u);var a=i[0][0]*i[1][0]+i[0][1]*i[1][1];i[1][0]-=i[0][0]*a,i[1][1]-=i[0][1]*a;var l=T(i[1][0]*i[1][0]+i[1][1]*i[1][1]);if(0===l)return{origin:{x:r[4],y:r[5]},translate:{x:t,y:n},scale:{x:u,y:0},skew:{x:0,y:0},rotate:0};i[1][0]/=l,i[1][1]/=l,a/=l;var f=0;return i[1][1]<0?(f=P(i[1][1])*R,i[0][1]<0&&(f=360-f)):f=O(i[0][1])*R,o&&(f=-f),a=L(a,T(i[0][0]*i[0][0]+i[0][1]*i[0][1]))*R,{origin:{x:r[4],y:r[5]},translate:{x:t,y:n},scale:{x:u,y:l},skew:{x:a,y:0},rotate:f}}},{key:"toString",value:function(){return null===this.s&&(this.s="matrix("+this.m.map(N).join(" ")+")"),this.s}},{key:"determinant",get:function(){var t=this.m;return t[0]*t[3]-t[1]*t[2]}},{key:"isIdentity",get:function(){if(null===this.i){var t=this.m;this.i=1===t[0]&&0===t[1]&&0===t[2]&&1===t[3]&&0===t[4]&&0===t[5]}return this.i}}]),t}(),D=/\.0+$/;function N(t){return Number.isInteger(t)?t:t.toFixed(14).replace(D,"")}Object.freeze({M:2,L:2,Z:0,H:1,V:1,C:6,Q:4,T:2,S:4,A:7});function G(t,n,r){return t+(n-t)*r}function $(t,n,r){var e=arguments.length>3&&void 0!==arguments[3]&&arguments[3],i={x:G(t.x,n.x,r),y:G(t.y,n.y,r)};return e&&(i.a=H(t,n)),i}function H(t,n){return Math.atan2(n.y-t.y,n.x-t.x)}function Q(t,n,r,e){var i=1-e;return i*i*t+2*i*e*n+e*e*r}function U(t,n,r,e){return 2*(1-e)*(n-t)+2*e*(r-n)}function Y(t,n,r,e){var i=arguments.length>4&&void 0!==arguments[4]&&arguments[4],u={x:Q(t.x,n.x,r.x,e),y:Q(t.y,n.y,r.y,e)};return i&&(u.a=Z(t,n,r,e)),u}function Z(t,n,r,e){return Math.atan2(U(t.y,n.y,r.y,e),U(t.x,n.x,r.x,e))}function J(t,n,r,e,i){var u=i*i;return i*u*(e-t+3*(n-r))+3*u*(t+r-2*n)+3*i*(n-t)+t}function K(t,n,r,e,i){var u=1-i;return 3*(u*u*(n-t)+2*u*i*(r-n)+i*i*(e-r))}function W(t,n,r,e,i){var u=arguments.length>5&&void 0!==arguments[5]&&arguments[5],o={x:J(t.x,n.x,r.x,e.x,i),y:J(t.y,n.y,r.y,e.y,i)};return u&&(o.a=X(t,n,r,e,i)),o}function X(t,n,r,e,i){return Math.atan2(K(t.y,n.y,r.y,e.y,i),K(t.x,n.x,r.x,e.x,i))}function tt(t,n,r){var e=arguments.length>3&&void 0!==arguments[3]&&arguments[3];if(rt(n)){if(et(r))return Y(n,r.start,r,t,e)}else if(rt(r)){if(n.end)return Y(n,n.end,r,t,e)}else{if(n.end)return r.start?W(n,n.end,r.start,r,t,e):Y(n,n.end,r,t,e);if(r.start)return Y(n,r.start,r,t,e)}return $(n,r,t,e)}function nt(t,n,r){var e=tt(t,n,r,!0);return e.a=function(t){var n=arguments.length>1&&void 0!==arguments[1]&&arguments[1];return n?t+Math.PI:t}(e.a)/v,e}function rt(t){return!t.type||"corner"===t.type}function et(t){return null!=t.start&&!rt(t)}var it=new V;var ut={f:function(t){return t?t.join(" "):""},i:function(n,r,e){if(0===n)return r;if(1===n)return e;var i=r.length;if(i!==e.length)return h(n,r,e);for(var u,o=new Array(i),a=0;a<i;a++){if((u=t(r[a]))!==t(e[a]))return h(n,r,e);if("number"===u)o[a]=y(n,r[a],e[a]);else{if(r[a]!==e[a])return h(n,r,e);o[a]=r[a]}}return o}},ot={f:null,i:A,u:function(t,n){return function(r){var e=n(r);t.setAttribute("x1",_(e[0])),t.setAttribute("y1",_(e[1])),t.setAttribute("x2",_(e[2])),t.setAttribute("y2",_(e[3]))}}},at={f:_,i:y},lt={f:_,i:function(t,n,r){var e=y(t,n,r);return e<=0?0:e>=1?1:e}},ft={f:M,i:function(t,n,r){var e,i,u,o=n.length,a=r.length;if(o!==a)if(0===o)n=x(o=a,0);else if(0===a)a=o,r=x(o,0);else{var l=(u=(e=o)*(i=a)/function(t,n){for(var r;n;)r=n,n=t%n,t=r;return t||1}(e,i))<0?-u:u;n=k(n,Math.floor(l/o)),r=k(r,Math.floor(l/a)),o=a=l}for(var f=[],s=0;s<o;s++)f.push(c(d(t,n[s],r[s]),6));return f}};function st(t,n,r,e,i,u,o,a){return n=function(t,n,r){for(var e,i,u,o=t.length-1,a={},l=0;l<=o;l++)(e=t[l]).e&&(e.e=n(e.e)),e.v&&"g"===(i=e.v).t&&i.r&&(u=r.getElementById(i.r))&&(a[i.r]=u.querySelectorAll("stop"));return a}(t,e,a),function(e){var i,u=r(e,t,ct);return u?"c"===u.t?E(u.v):"g"===u.t?(n[u.r]&&function(t,n){for(var r=0,e=t.length;r<e;r++)t[r].setAttribute("stop-color",E(n[r]))}(n[u.r],u.v),(i=u.r)?"url(#"+i+")":"none"):"none":"none"}}function ct(t,n,r){if(0===t)return n;if(1===t)return r;if(n&&r){var e=n.t;if(e===r.t)switch(n.t){case"c":return{t:e,v:b(t,n.v,r.v)};case"g":if(n.r===r.r)return{t:e,v:w(t,n.v,r.v),r:n.r}}}return h(t,n,r)}var vt={blur:m,brightness:d,contrast:d,"drop-shadow":function(t,n,r){return 0===t?n:1===t?r:{blur:m(t,n.blur,r.blur),offset:g(t,n.offset,r.offset),color:b(t,n.color,r.color)}},grayscale:d,"hue-rotate":y,invert:d,opacity:d,saturate:d,sepia:d};function ht(t,n,r){if(0===t)return n;if(1===t)return r;var e=n.length;if(e!==r.length)return h(t,n,r);for(var i,u=[],o=0;o<e;o++){if(n[o].type!==r[o].type)return n;if(!(i=vt[n[o].type]))return h(t,n,r);u.push({type:n.type,value:i(t,n[o].value,r[o].value)})}return u}var yt={blur:function(t){return t?function(n){t.setAttribute("stdDeviation",I(n))}:null},brightness:function(t,n,r){return(t=gt(r,n))?function(n){n=_(n),t.map((function(t){return t.setAttribute("slope",n)}))}:null},contrast:function(t,n,r){return(t=gt(r,n))?function(n){var r=_((1-n)/2);n=_(n),t.map((function(t){t.setAttribute("slope",n),t.setAttribute("intercept",r)}))}:null},"drop-shadow":function(t,n,r){var e=r.getElementById(n+"-blur");if(!e)return null;var i=r.getElementById(n+"-offset");if(!i)return null;var u=r.getElementById(n+"-flood");return u?function(t){e.setAttribute("stdDeviation",I(t.blur)),i.setAttribute("dx",_(t.offset.x)),i.setAttribute("dy",_(t.offset.y)),u.setAttribute("flood-color",E(t.color))}:null},grayscale:function(t){return t?function(n){t.setAttribute("values",M(function(t){return[.2126+.7874*(t=1-t),.7152-.7152*t,.0722-.0722*t,0,0,.2126-.2126*t,.7152+.2848*t,.0722-.0722*t,0,0,.2126-.2126*t,.7152-.7152*t,.0722+.9278*t,0,0,0,0,0,1,0]}(n)))}:null},"hue-rotate":function(t){return t?function(n){return t.setAttribute("values",_(n))}:null},invert:function(t,n,r){return(t=gt(r,n))?function(n){n=_(n)+" "+_(1-n),t.map((function(t){return t.setAttribute("tableValues",n)}))}:null},opacity:function(t,n,r){return(t=r.getElementById(n+"-A"))?function(n){return t.setAttribute("tableValues","0 "+_(n))}:null},saturate:function(t){return t?function(n){return t.setAttribute("values",_(n))}:null},sepia:function(t){return t?function(n){return t.setAttribute("values",M(function(t){return[.393+.607*(t=1-t),.769-.769*t,.189-.189*t,0,0,.349-.349*t,.686+.314*t,.168-.168*t,0,0,.272-.272*t,.534-.534*t,.131+.869*t,0,0,0,0,0,1,0]}(n)))}:null}};var dt=["R","G","B"];function gt(t,n){var r=dt.map((function(r){return t.getElementById(n+"-"+r)||null}));return-1!==r.indexOf(null)?null:r}var mt={fill:st,"fill-opacity":lt,stroke:st,"stroke-opacity":lt,"stroke-width":at,"stroke-dashoffset":{f:_,i:y},"stroke-dasharray":ft,opacity:lt,transform:function(n,r,e,i){if(!(n=function(n,r){if(!n||"object"!==t(n))return null;var e=!1;for(var i in n)n.hasOwnProperty(i)&&(n[i]&&n[i].length?(n[i].forEach((function(t){t.e&&(t.e=r(t.e))})),e=!0):delete n[i]);return e?n:null}(n,i)))return null;var u=function(t,i,u){var o=arguments.length>3&&void 0!==arguments[3]?arguments[3]:null;return n[t]?e(i,n[t],u):r&&r[t]?r[t]:o};return r&&r.a&&n.o?function(t){var r=e(t,n.o,nt);return it.recomposeSelf(r,u("r",t,y,0)+r.a,u("k",t,g),u("s",t,g),u("t",t,g)).toString()}:function(t){return it.recomposeSelf(u("o",t,tt,null),u("r",t,y,0),u("k",t,g),u("s",t,g),u("t",t,g)).toString()}},"#filter":function(t,n,r,e,i,u,o,a){if(!n.items||!t||!t.length)return null;var l=function(t,n){var r=(t=t.map((function(t){return t&&yt[t[0]]?(n.getElementById(t[1]),yt[t[0]](n.getElementById(t[1]),t[1],n)):null}))).length;return function(n){for(var e=0;e<r;e++)t[e]&&t[e](n[e].value)}}(n.items,a);return l?(t=function(t,n){return t.map((function(t){return t.e=n(t.e),t}))}(t,e),function(n){l(r(n,t,ht))}):null},"#line":ot,points:{f:M,i:A},d:ut,r:at,"#size":B,"#radius":F,_:function(t,n){if(Array.isArray(t))for(var r=0;r<t.length;r++)this[t[r]]=n;else this[t]=n}},pt=function(){function t(r){n(this,t),this.list=r,this.length=r.length}return e(t,[{key:"setAttribute",value:function(t,n){for(var r=this.list,e=0;e<this.length;e++)r[e].setAttribute(t,n)}},{key:"removeAttribute",value:function(t){for(var n=this.list,r=0;r<this.length;r++)n[r].removeAttribute(t)}},{key:"style",value:function(t,n){for(var r=this.list,e=0;e<this.length;e++)r[e].style[t]=n}}]),t}(),bt=/-./g,wt=function(t,n){return n.toUpperCase()};function At(t){return"function"==typeof t?t:h}function xt(t){return t?"function"==typeof t?t:Array.isArray(t)?function(t){var n=arguments.length>1&&void 0!==arguments[1]?arguments[1]:u;if(!Array.isArray(t))return n;switch(t.length){case 1:return s(t[0])||n;case 2:return s(t[0],t[1])||n;case 4:return a(t[0],t[1],t[2],t[3])||n}return n}(t,null):function(t,n){var r=arguments.length>2&&void 0!==arguments[2]?arguments[2]:u;switch(t){case"linear":return u;case"steps":return s(n.steps||1,n.jump||0)||r;case"bezier":case"cubic-bezier":return a(n.x1||0,n.y1||0,n.x2||0,n.y2||0)||r}return r}(t.type,t.value,null):null}function kt(t,n,r){var e=arguments.length>3&&void 0!==arguments[3]&&arguments[3],i=n.length-1;if(t<=n[0].t)return e?[0,0,n[0].v]:n[0].v;if(t>=n[i].t)return e?[i,1,n[i].v]:n[i].v;var u,o=n[0],a=null;for(u=1;u<=i;u++){if(!(t>n[u].t)){a=n[u];break}o=n[u]}return null==a?e?[i,1,n[i].v]:n[i].v:o.t===a.t?e?[u,1,a.v]:a.v:(t=(t-o.t)/(a.t-o.t),o.e&&(t=o.e(t)),e?[u,t,r(t,o.v,a.v)]:r(t,o.v,a.v))}function St(t,n){var r=arguments.length>2&&void 0!==arguments[2]?arguments[2]:null;return t&&t.length?"function"!=typeof n?null:("function"!=typeof r&&(r=null),function(e){var i=kt(e,t,n);return null!=i&&r&&(i=r(i)),i}):null}function _t(t,n){return t.t-n.t}function Mt(n,r,e,i,u){var o,a="@"===e[0],l="#"===e[0],f=mt[e],s=h;switch(a?(o=e.substr(1),e=o.replace(bt,wt)):l&&(e=e.substr(1)),t(f)){case"function":if(s=f(i,u,kt,xt,e,a,r,n),l)return s;break;case"string":s=St(i,At(f));break;case"object":if((s=St(i,At(f.i),f.f))&&"function"==typeof f.u)return f.u(r,s,e,a,n)}return s?function(t,n,r){var e=arguments.length>3&&void 0!==arguments[3]&&arguments[3];if(e)return t instanceof pt?function(e){return t.style(n,r(e))}:function(e){return t.style[n]=r(e)};if(Array.isArray(n)){var i=n.length;return function(e){var u=r(e);if(null==u)for(var o=0;o<i;o++)t[o].removeAttribute(n);else for(var a=0;a<i;a++)t[a].setAttribute(n,u)}}return function(e){var i=r(e);null==i?t.removeAttribute(n):t.setAttribute(n,i)}}(r,e,s,a):null}function It(n,r,e,i){if(!i||"object"!==t(i))return null;var u=null,o=null;return Array.isArray(i)?o=function(t){if(!t||!t.length)return null;for(var n=0;n<t.length;n++)t[n].e&&(t[n].e=xt(t[n].e));return t.sort(_t)}(i):(o=i.keys,u=i.data||null),o?Mt(n,r,e,o,u):null}function Et(t,n,r){if(!r)return null;var e=[];for(var i in r)if(r.hasOwnProperty(i)){var u=It(t,n,i,r[i]);u&&e.push(u)}return e.length?e:null}function Ft(t,n){if(!n.duration||n.duration<0)return null;var r=function(t,n){if(!n)return null;var r=[];if(Array.isArray(n))for(var e=n.length,i=0;i<e;i++){var u=n[i];if(2===u.length){var o=null;if("string"==typeof u[0])o=t.getElementById(u[0]);else if(Array.isArray(u[0])){o=[];for(var a=0;a<u[0].length;a++)if("string"==typeof u[0][a]){var l=t.getElementById(u[0][a]);l&&o.push(l)}o=o.length?1===o.length?o[0]:new pt(o):null}if(o){var f=Et(t,o,u[1]);f&&(r=r.concat(f))}}}else for(var s in n)if(n.hasOwnProperty(s)){var c=t.getElementById(s);if(c){var v=Et(t,c,n[s]);v&&(r=r.concat(v))}}return r.length?r:null}(t,n.elements);return r?function(t,n){var r=arguments.length>2&&void 0!==arguments[2]?arguments[2]:1/0,e=arguments.length>3&&void 0!==arguments[3]?arguments[3]:1,i=arguments.length>4&&void 0!==arguments[4]&&arguments[4],u=arguments.length>5&&void 0!==arguments[5]?arguments[5]:1,o=t.length,a=e>0?n:0;i&&r%2==0&&(a=n-a);var l=null;return function(f,s){var c=f%n,v=1+(f-c)/n;s*=e,i&&v%2==0&&(s=-s);var h=!1;if(v>r)c=a,h=!0,-1===u&&(c=e>0?0:n);else if(s<0&&(c=n-c),c===l)return!1;l=c;for(var y=0;y<o;y++)t[y](c);return h}}(r,n.duration,n.iterations||1/0,n.direction||1,!!n.alternate,n.fill||1):null}var Bt=function(){function t(r){var e=arguments.length>1&&void 0!==arguments[1]?arguments[1]:{};n(this,t),this._id=0,this._running=!1,this._animations=r,this.direction=e.direction||1,this.speed=e.speed||1,this.fps=e.fps||100,this.offset=e.offset||0}return e(t,[{key:"_start",value:function(){var t=this,n=arguments.length>0&&void 0!==arguments[0]?arguments[0]:0,r=-1/0,e=null,i={},u=function u(o){t._running=!0,null==e&&(e=o);var a=Math.round((o-e+n)*t.speed),l=t.fps?1e3/t.fps:0;if(a>r+l){t.offset=a,r=a;for(var f=t._animations,s=f.length,c=0,v=0;v<s;v++)i[v]?c++:(i[v]=f[v](a,t.direction),i[v]&&c++);if(c===s)return void t._stop()}t._id=window.requestAnimationFrame(u)};this._id=window.requestAnimationFrame(u)}},{key:"_stop",value:function(){this._id&&window.cancelAnimationFrame(this._id),this._running=!1}},{key:"play",value:function(){this._running||this._start(this.offset)}},{key:"stop",value:function(){this._stop(),this.offset=0;var t=this.direction,n=this._animations;requestAnimationFrame((function(){for(var r=0;r<n.length;r++)n[r](0,t)}))}},{key:"restart",value:function(){this._stop(),this.offset=0,this._start()}},{key:"pause",value:function(){this._stop()}},{key:"reverse",value:function(){this.direction=-this.direction}}],[{key:"build",value:function(n){if(!(n=function(t){if(!t||!t.root||!Array.isArray(t.animations))return null;var n=window.document.getElementById(t.root);if(!n)return null;var r=t.animations.map((function(t){return Ft(n,t)})).filter((function(t){return!!t}));return r.length?{element:n,animations:r,options:t.options||void 0}:null}(n)))return null;var r=n.element,e=n.options||{},i=new t(n.animations,n.options);return function(t,n,r){var e=arguments.length>3&&void 0!==arguments[3]?arguments[3]:null;if("click"===r){var i=function r(){n.removeEventListener("click",r),t.play()};return void n.addEventListener("click",i)}if("hover"===r)return n.addEventListener("mouseenter",(function(){return t.play()})),void n.addEventListener("mouseleave","freeze"===e?function(){return t.pause()}:function(){return t.stop()});t.play()}(i,r,e.start,e.hover),i}}]),t}();return function(){for(var t=0,n=["ms","moz","webkit","o"],r=0;r<n.length&&!window.requestAnimationFrame;++r)window.requestAnimationFrame=window[n[r]+"RequestAnimationFrame"],window.cancelAnimationFrame=window[n[r]+"CancelAnimationFrame"]||window[n[r]+"CancelRequestAnimationFrame"];window.requestAnimationFrame||(window.requestAnimationFrame=function(n){var r=Date.now(),e=Math.max(0,16-(r-t)),i=window.setTimeout((function(){n(r+e)}),e);return t=r+e,i},window.cancelAnimationFrame=window.clearTimeout)}(),Bt}));
__SVGATOR_PLAYER__.build({"root":"ejxnnmvmrwyp1","animations":[{"duration":2510,"direction":1,"iterations":1,"fill":1,"alternate":false,"elements":{"ejxnnmvmrwyp15":{"transform":{"keys":{"o":[{"t":1500,"v":{"x":265.86674785,"y":-39.413994309999985,"type":"corner"},"e":[0.175,0.885,0.32,1.275]},{"t":2500,"v":{"x":172.235,"y":48.892,"type":"corner"},"e":[0.175,0.885,0.32,1.275]}]}},"opacity":[{"t":0,"v":0},{"t":1000,"v":0,"e":[0.95,0.05,0.795,0.035]},{"t":1500,"v":0.45,"e":[0.95,0.05,0.795,0.035]},{"t":1550,"v":1}]},"ejxnnmvmrwyp21":{"transform":{"keys":{"o":[{"t":1500,"v":{"x":-94.13324355999998,"y":229.27299785500003,"type":"corner"},"e":[0.175,0.885,0.32,1.275]},{"t":2500,"v":{"x":0,"y":158.696,"type":"corner"},"e":[0.175,0.885,0.32,1.275]}]}},"opacity":[{"t":0,"v":0},{"t":1000,"v":0,"e":[0.95,0.05,0.795,0.035]},{"t":1500,"v":0.45,"e":[0.95,0.05,0.795,0.035]},{"t":1550,"v":1}]},"ejxnnmvmrwyp27":{"transform":{"keys":{"o":[{"t":1500,"v":{"x":87.24975322,"y":254.53,"type":"corner"},"e":[0.175,0.885,0.32,1.275]},{"t":2500,"v":{"x":87.245,"y":189.532,"type":"corner"},"e":[0.175,0.885,0.32,1.275]}]}},"opacity":[{"t":0,"v":0},{"t":1000,"v":0,"e":[0.95,0.05,0.795,0.035]},{"t":1500,"v":0.45,"e":[0.95,0.05,0.795,0.035]},{"t":1550,"v":1}]},"ejxnnmvmrwyp33":{"transform":{"keys":{"o":[{"t":1500,"v":{"x":265.496239184999,"y":229.27299785,"type":"corner"},"e":[0.175,0.885,0.32,1.275]},{"t":2500,"v":{"x":172.234,"y":158.696,"type":"corner"},"e":[0.175,0.885,0.32,1.275]}]}},"opacity":[{"t":0,"v":0},{"t":1000,"v":0,"e":[0.95,0.05,0.795,0.035]},{"t":1500,"v":0.45,"e":[0.95,0.05,0.795,0.035]},{"t":1550,"v":1}]},"ejxnnmvmrwyp39":{"transform":{"keys":{"o":[{"t":1500,"v":{"x":87.24975321999992,"y":-65,"type":"corner"},"e":[0.175,0.885,0.32,1.275]},{"t":2500,"v":{"x":87.245,"y":0,"type":"corner"},"e":[0.175,0.885,0.32,1.275]}]}},"opacity":[{"t":0,"v":0},{"t":1000,"v":0,"e":[0.95,0.05,0.795,0.035]},{"t":1500,"v":0.45,"e":[0.95,0.05,0.795,0.035]},{"t":1550,"v":1}]},"ejxnnmvmrwyp45":{"transform":{"keys":{"o":[{"t":1500,"v":{"x":-93.63174819999995,"y":-39.73600101000001,"type":"corner"},"e":[0.175,0.885,0.32,1.275]},{"t":2500,"v":{"x":0,"y":48.887,"type":"corner"},"e":[0.175,0.885,0.32,1.275]}]}},"opacity":[{"t":0,"v":0},{"t":1000,"v":0,"e":[0.95,0.05,0.795,0.035]},{"t":1500,"v":0.45,"e":[0.95,0.05,0.795,0.035]},{"t":1550,"v":1}]}}}],"options":{"start":"load","hover":"freeze"}})]]></script></svg>