<svg xmlns="http://www.w3.org/2000/svg" xmlns:xlink="http://www.w3.org/1999/xlink" width="39.397" height="40.648" viewBox="0 0 39.397 40.648">
  <defs>
    <clipPath id="clip-path">
      <rect id="Rectangle_130" data-name="Rectangle 130" width="39.397" height="40.648" fill="none"/>
    </clipPath>
  </defs>
  <g id="handshake-icon" clip-path="url(#clip-path)">
    <path id="Path_44" data-name="Path 44" d="M3765.423-6321.576a2.726,2.726,0,0,0-1.789.789c-1,1-1.626,2.792-.738,3.843s1.9.4,2.686.212c-.218.8-.85,1.585-.052,2.631s1.9.4,2.686.213c-.219.8-.824,1.6-.054,2.577s2.009.482,2.844.213c-.321.86-.994,1.8-.106,2.842s2.944.573,3.95-.421a2.565,2.565,0,0,0,.211-3.525,2.257,2.257,0,0,0-2.369-.529,2.34,2.34,0,0,0-.369-2.475,2.2,2.2,0,0,0-2.159-.58,2.363,2.363,0,0,0-.473-2.265,2.2,2.2,0,0,0-2.161-.577,2.359,2.359,0,0,0-.471-2.265A2.1,2.1,0,0,0,3765.423-6321.576Zm8.794-16.271c-2.476,0-7.635,3.527-7.635,3.527a3.965,3.965,0,0,1-3.581.1l-4-1.422v14.482s1.126.353,2.158.79a4.808,4.808,0,0,1,1.159-1.845,4.326,4.326,0,0,1,6.108-.049,4.23,4.23,0,0,1,1,1.789,3.88,3.88,0,0,1,1.634,1.051,4.12,4.12,0,0,1,.948,1.793,3.958,3.958,0,0,1,1.685,1.051,4.144,4.144,0,0,1,1,1.949,3.858,3.858,0,0,1,1.736,1.051,4.381,4.381,0,0,1,1.054,3.689s.585.677.948,1.054a1.757,1.757,0,0,0,1.263.537,1.759,1.759,0,0,0,1.265-.537,1.933,1.933,0,0,0,0-2.633c-.026-.026-2.547-2.659-2.318-2.9s3.364,3.155,3.423,3.214a1.748,1.748,0,0,0,1.263.538,1.751,1.751,0,0,0,1.264-.538,1.866,1.866,0,0,0,0-2.58c-.032-.035-2.922-3.18-2.737-3.371.2-.218,3.73,3.526,3.737,3.526a1.7,1.7,0,0,0,1.223.483,1.7,1.7,0,0,0,1.2-.534,1.9,1.9,0,0,0,.1-2.475c-.013-.039-2.921-3.286-2.738-3.476s3.153,2.892,3.16,2.9a1.755,1.755,0,0,0,1.263.537,1.757,1.757,0,0,0,1.265-.537,1.933,1.933,0,0,0,0-2.634c-.013-.014-3.889-4-7.793-8.056a2.508,2.508,0,0,0-2.738-.529c-1.086.493-2.475,1.171-3.529,1.685a6.983,6.983,0,0,1-2.369.844,4.149,4.149,0,0,1-4.055-4.214,4.215,4.215,0,0,1,1.948-3.529c1.613-1.157,5.318-3.21,5.318-3.21A4.64,4.64,0,0,0,3774.217-6337.847Zm10.531-.159a3.359,3.359,0,0,0-1.368.475c-2.113,1.163-7.175,4.119-9.585,5.635a2.7,2.7,0,0,0-1.526,2.264,2.372,2.372,0,0,0,2.317,2.42,2.864,2.864,0,0,0,1.316-.475q2.679-1.354,5.318-2.789a2.451,2.451,0,0,1,3,.158s6.693,6.916,8.584,8.792c1.223,1.228,2.935.652,3.474.58s3.159-.58,3.159-.58v-12.742s-4.838,1.251-6.371,1.475a3.478,3.478,0,0,1-1.633-.316s-1.935-1.736-4.108-3.633c-1.1-.96-1.837-1.314-2.578-1.261Z" transform="translate(-3759.702 6344.842)" fill="#fff"/>
  </g>
</svg>
